<?xml version="1.0" encoding="utf-8"?>
<!-- Generator: Adobe Illustrator 17.0.0, SVG Export Plug-In . SVG Version: 6.00 Build 0)  -->
<!DOCTYPE svg PUBLIC "-//W3C//DTD SVG 1.1//EN" "http://www.w3.org/Graphics/SVG/1.1/DTD/svg11.dtd">
<svg version="1.1" id="Layer_1" xmlns="http://www.w3.org/2000/svg" xmlns:xlink="http://www.w3.org/1999/xlink" x="0px" y="0px"
	 width="181.875px" height="79.034px" viewBox="0 0 181.875 79.034" enable-background="new 0 0 181.875 79.034"
	 xml:space="preserve">
<g>
	<g>
		<path fill="#CCD7E8" d="M88.685,78.321c-14.982-0.319-11.087,2.504-17.263-11.717c-4.499-10.359-8.899-20.775-12.823-31.358
			c-1.017-2.742-0.911-6.525,0.13-9.281c2.458-6.503,5.699-12.721,8.843-18.943c0.644-1.275,2.149-2.647,3.443-2.864
			c0.804-0.135,2.351,1.641,2.899,2.859c9.466,21.054,18.876,42.133,28.179,63.26c2.227,5.058,0.127,7.965-5.428,8.037
			C94.006,78.346,91.345,78.318,88.685,78.321z"/>
		<path fill="#CCD7E8" d="M168.227,0.514c2.496,0.007,4.993-0.049,7.487,0.018c5.536,0.15,7.491,3.051,5.255,8.229
			c-4.416,10.224-9.021,20.367-13.55,30.542c-4.664,10.478-9.266,20.984-14.064,31.4c-0.757,1.644-2.404,2.878-3.639,4.302
			c-1.256-1.436-2.869-2.69-3.705-4.339c-3.005-5.927-6.057-11.867-8.438-18.054c-0.957-2.487-1.064-5.95-0.115-8.414
			c4.959-12.87,10.526-25.504,15.557-38.348c1.6-4.086,3.947-5.805,8.229-5.383C163.55,0.694,165.897,0.508,168.227,0.514z"/>
		<path fill="#CCD7E8" d="M147.288,6.246c-0.302,0.879-0.722,2.484-1.387,3.979c-8.986,20.184-17.973,40.368-27.08,60.497
			c-0.758,1.674-2.381,2.957-3.602,4.422c-1.29-1.373-2.969-2.545-3.799-4.155c-2.968-5.755-5.963-11.538-8.287-17.565
			c-0.962-2.495-1.151-6.004-0.154-8.418c5.576-13.508,11.687-26.794,17.457-40.223c1.299-3.023,3.172-4.394,6.436-4.312
			c5.152,0.129,10.309,0.092,15.464,0.062C145.705,0.513,147.119,2.331,147.288,6.246z"/>
		<path fill="#CCD7E8" d="M53.111,78.333c-9.398,2.63-13.305-2.428-16.367-10.478c-4.249-11.17-9.499-21.968-14.528-32.829
			c-1.619-3.495-1.583-6.545,0.162-9.946c3.034-5.914,5.691-12.021,8.713-17.942c0.677-1.327,2.24-3.111,3.332-3.068
			c1.142,0.045,2.629,1.847,3.245,3.207c9.389,20.751,18.709,41.534,27.928,62.361c2.647,5.98,0.671,8.668-5.994,8.695
			C57.438,78.34,55.274,78.333,53.111,78.333z"/>
		<path fill="#CCD7E8" d="M16.109,78.337c-3.487,0-6.977,0.068-10.462-0.017c-4.621-0.112-6.842-3.031-4.999-7.245
			c3.987-9.116,8.243-18.12,12.608-27.063c1.686-3.456,4.017-3.482,5.694-0.048c4.368,8.943,8.611,17.954,12.584,27.078
			c1.827,4.197-0.414,7.156-4.963,7.26c-3.486,0.079-6.975,0.016-10.462,0.016C16.109,78.324,16.109,78.331,16.109,78.337z"/>
		<path fill="#CCD7E8" d="M99.108,0.029c3.493,0.001,6.989-0.077,10.479,0.02c4.44,0.123,6.641,2.872,4.915,6.872
			c-3.948,9.152-8.199,18.179-12.564,27.142c-1.641,3.37-4.126,3.331-5.783-0.082C91.875,25.162,87.71,16.28,83.803,7.29
			c-1.913-4.403,0.086-7.117,4.825-7.244C92.119-0.047,95.614,0.028,99.108,0.029z"/>
	</g>
</g>
</svg>
