<?xml version="1.0" encoding="utf-8"?>
<!-- Generator: Adobe Illustrator 17.0.0, SVG Export Plug-In . SVG Version: 6.00 Build 0)  -->
<!DOCTYPE svg PUBLIC "-//W3C//DTD SVG 1.1//EN" "http://www.w3.org/Graphics/SVG/1.1/DTD/svg11.dtd">
<svg version="1.1" id="Layer_1" xmlns="http://www.w3.org/2000/svg" xmlns:xlink="http://www.w3.org/1999/xlink" x="0px" y="0px"
	 width="736.147px" height="185.895px" viewBox="-137.118 161.858 736.147 185.895"
	 enable-background="new -137.118 161.858 736.147 185.895" xml:space="preserve">
<g>
	<g>
		<g>
			<path fill="#805333" d="M32.751,213.139v128.203c0,3.54-2.871,6.411-6.411,6.411s-6.411-2.871-6.411-6.411V213.139H32.751z"/>
		</g>
	</g>
	<g>
		<g>
			<path fill="#F18D46" d="M-15.325,174.677h-102.563v173.075h102.563c3.536-0.01,6.399-2.875,6.409-6.411V181.088
				C-8.926,177.552-11.789,174.689-15.325,174.677z M-37.76,267.625h-38.462l-1.603-12.82h41.667L-37.76,267.625z"/>
		</g>
	</g>
	<g>
		<g>
			<path fill="#804537" d="M-111.478,174.677v173.075h-12.821c-7.08,0-12.82-5.74-12.82-12.82V187.498
				c0-7.08,5.74-12.821,12.82-12.821H-111.478z"/>
		</g>
	</g>
	<g>
		<g>
			<g>
				<path fill="#CC6F56" d="M-117.888,193.909h12.821c1.77,0,3.204-1.435,3.204-3.205c0-1.77-1.434-3.205-3.204-3.205h-12.821
					c-1.77,0-3.205,1.435-3.205,3.205C-121.093,192.474-119.658,193.909-117.888,193.909z"/>
			</g>
		</g>
		<g>
			<g>
				<path fill="#CC6F56" d="M-105.067,200.318h-12.821c-1.77,0-3.205,1.435-3.205,3.205c0,1.77,1.435,3.205,3.205,3.205h12.821
					c1.77,0,3.204-1.435,3.204-3.205C-101.863,201.753-103.297,200.318-105.067,200.318z"/>
			</g>
		</g>
		<g>
			<g>
				<path fill="#CC6F56" d="M-105.067,213.139h-12.821c-1.77,0-3.205,1.435-3.205,3.205c0,1.77,1.435,3.205,3.205,3.205h12.821
					c1.77,0,3.204-1.435,3.204-3.205C-101.863,214.574-103.297,213.139-105.067,213.139z"/>
			</g>
		</g>
		<g>
			<g>
				<path fill="#CC6F56" d="M-105.067,225.959h-12.821c-1.77,0-3.205,1.435-3.205,3.205c0,1.77,1.435,3.205,3.205,3.205h12.821
					c1.77,0,3.204-1.435,3.204-3.205C-101.863,227.394-103.297,225.959-105.067,225.959z"/>
			</g>
		</g>
		<g>
			<g>
				<path fill="#CC6F56" d="M-105.067,238.78h-12.821c-1.77,0-3.205,1.434-3.205,3.205c0,1.77,1.435,3.204,3.205,3.204h12.821
					c1.77,0,3.204-1.434,3.204-3.204C-101.863,240.214-103.297,238.78-105.067,238.78z"/>
			</g>
		</g>
		<g>
			<g>
				<path fill="#CC6F56" d="M-105.067,251.6h-12.821c-1.77,0-3.205,1.435-3.205,3.205s1.435,3.205,3.205,3.205h12.821
					c1.77,0,3.204-1.435,3.204-3.205S-103.297,251.6-105.067,251.6z"/>
			</g>
		</g>
		<g>
			<g>
				<path fill="#CC6F56" d="M-105.067,264.421h-12.821c-1.77,0-3.205,1.434-3.205,3.204c0,1.771,1.435,3.205,3.205,3.205h12.821
					c1.77,0,3.204-1.434,3.204-3.205C-101.863,265.855-103.297,264.421-105.067,264.421z"/>
			</g>
		</g>
		<g>
			<g>
				<path fill="#CC6F56" d="M-105.067,277.24h-12.821c-1.77,0-3.205,1.435-3.205,3.205c0,1.77,1.435,3.205,3.205,3.205h12.821
					c1.77,0,3.204-1.435,3.204-3.205C-101.863,278.676-103.297,277.24-105.067,277.24z"/>
			</g>
		</g>
		<g>
			<g>
				<path fill="#CC6F56" d="M-105.067,290.06h-12.821c-1.77,0-3.205,1.435-3.205,3.205s1.435,3.205,3.205,3.205h12.821
					c1.77,0,3.204-1.435,3.204-3.205S-103.297,290.06-105.067,290.06z"/>
			</g>
		</g>
		<g>
			<g>
				<path fill="#CC6F56" d="M-105.067,302.881h-12.821c-1.77,0-3.205,1.435-3.205,3.205s1.435,3.205,3.205,3.205h12.821
					c1.77,0,3.204-1.435,3.204-3.205S-103.297,302.881-105.067,302.881z"/>
			</g>
		</g>
		<g>
			<g>
				<path fill="#CC6F56" d="M-105.067,315.701h-12.821c-1.77,0-3.205,1.435-3.205,3.205s1.435,3.205,3.205,3.205h12.821
					c1.77,0,3.204-1.435,3.204-3.205S-103.297,315.701-105.067,315.701z"/>
			</g>
		</g>
		<g>
			<g>
				<path fill="#CC6F56" d="M-105.067,328.522h-12.821c-1.77,0-3.205,1.435-3.205,3.205s1.435,3.205,3.205,3.205h12.821
					c1.77,0,3.204-1.435,3.204-3.205S-103.297,328.522-105.067,328.522z"/>
			</g>
		</g>
	</g>
	<g>
		<g>
			<path fill="#FFFFFF" d="M-21.736,229.164c0.004,3.401-1.345,6.664-3.75,9.07c-2.405,2.405-5.669,3.756-9.07,3.751l-1.603,12.82
				h-41.667l-1.601-12.82c-7.081,0.052-12.864-5.645-12.918-12.725c-0.052-7.08,5.645-12.864,12.725-12.916h0.641
				c0.16-0.006,0.322,0.004,0.481,0.031c-2.729-9.183,0.674-19.086,8.473-24.652c7.798-5.565,18.269-5.565,26.066,0
				c7.799,5.567,11.201,15.469,8.473,24.652c0.159-0.027,0.321-0.037,0.481-0.031h0.674
				C-27.339,216.466-21.734,222.171-21.736,229.164z"/>
		</g>
	</g>
	<g>
		<g>
			<path fill="#BDC3C7" d="M-36.158,254.805l-1.603,12.82h-38.462l-1.603-12.82H-36.158z"/>
		</g>
	</g>
	<g>
		<g>
			<path fill="#E6E7E8" d="M-89.042,293.265h6.411c1.77,0,3.205-1.434,3.205-3.205c0-1.77-1.435-3.204-3.205-3.204h-6.411
				c-1.77,0-3.205,1.434-3.205,3.204C-92.247,291.832-90.812,293.265-89.042,293.265z"/>
		</g>
	</g>
	<g>
		<g>
			<path fill="#E6E7E8" d="M-69.812,293.265h44.871c1.77,0,3.205-1.434,3.205-3.205c0-1.77-1.435-3.204-3.205-3.204h-44.871
				c-1.77,0-3.205,1.434-3.205,3.204C-73.017,291.832-71.582,293.265-69.812,293.265z"/>
		</g>
	</g>
	<g>
		<g>
			<path fill="#E6E7E8" d="M-82.632,312.497h-6.411c-1.77,0-3.205,1.434-3.205,3.204s1.435,3.205,3.205,3.205h6.411
				c1.77,0,3.205-1.435,3.205-3.205S-80.862,312.497-82.632,312.497z"/>
		</g>
	</g>
	<g>
		<g>
			<path fill="#E6E7E8" d="M-24.941,312.497h-44.871c-1.77,0-3.205,1.434-3.205,3.204s1.435,3.205,3.205,3.205h44.871
				c1.77,0,3.205-1.435,3.205-3.205S-23.171,312.497-24.941,312.497z"/>
		</g>
	</g>
	<g>
		<g>
			<path fill="#E6E7E8" d="M-89.042,306.087h32.051c1.77,0,3.204-1.435,3.204-3.205s-1.434-3.205-3.204-3.205h-32.051
				c-1.77,0-3.205,1.435-3.205,3.205S-90.812,306.087-89.042,306.087z"/>
		</g>
	</g>
	<g>
		<g>
			<path fill="#E6E7E8" d="M-24.941,299.676h-19.23c-1.77,0-3.205,1.435-3.205,3.205s1.435,3.205,3.205,3.205h19.23
				c1.77,0,3.205-1.435,3.205-3.205S-23.171,299.676-24.941,299.676z"/>
		</g>
	</g>
	<g>
		<g>
			<path fill="#CB8252" d="M48.776,193.909c0-17.701-10.044-32.051-22.436-32.051s-22.436,14.35-22.436,32.051
				c0,17.7,10.044,32.05,22.436,32.05S48.776,211.609,48.776,193.909z"/>
		</g>
	</g>
	<g>
		<g>
			<path fill="#E6E7E8" d="M-69.107,223.234c-0.472,0.255-1.001,0.387-1.537,0.386c-1.164-0.006-2.234-0.644-2.79-1.668
				c-1.132-2.692-3.395-4.744-6.185-5.608h0.641c0.16-0.006,0.322,0.004,0.481,0.031c-0.62-2.091-0.933-4.26-0.929-6.442
				c0.129-0.007,0.258,0.004,0.384,0.033c4.972,0.954,9.162,4.283,11.217,8.91c0.41,0.747,0.506,1.628,0.265,2.447
				C-67.801,222.139-68.357,222.829-69.107,223.234z"/>
		</g>
	</g>
	<g>
		<g>
			<path fill="#E6E7E8" d="M-34.364,216.344c-2.79,0.864-5.053,2.916-6.185,5.608c-0.556,1.024-1.625,1.662-2.788,1.668
				c-0.538,0.001-1.067-0.13-1.539-0.386c-0.75-0.406-1.306-1.095-1.547-1.912c-0.24-0.818-0.145-1.699,0.265-2.447
				c2.066-4.619,6.252-7.942,11.217-8.91c0.126-0.028,0.257-0.04,0.386-0.033c0.003,2.181-0.311,4.351-0.93,6.442
				c0.159-0.027,0.321-0.037,0.481-0.031H-34.364z"/>
		</g>
	</g>
</g>
<g>
	<path d="M86.752,312.497V222.78h14.913v35.379c2.455-2.615,5.231-4.698,8.332-6.248c3.099-1.55,6.721-2.325,10.868-2.325
		c3.381,0,6.469,0.694,9.268,2.083c2.797,1.389,5.212,3.411,7.245,6.068c2.032,2.656,3.602,5.938,4.709,9.841
		c1.106,3.904,1.66,8.392,1.66,13.464c0,4.629-0.625,8.915-1.872,12.859c-1.248,3.945-3.029,7.366-5.343,10.264
		c-2.315,2.898-5.112,5.162-8.392,6.792c-3.281,1.631-6.954,2.445-11.019,2.445c-1.892,0-3.622-0.191-5.192-0.573
		s-2.999-0.915-4.287-1.6c-1.289-0.685-2.486-1.52-3.592-2.506c-1.108-0.985-2.164-2.083-3.17-3.29l-0.664,4.165
		c-0.242,1.048-0.655,1.792-1.238,2.234c-0.584,0.443-1.379,0.664-2.385,0.664H86.752z M115.733,261.179
		c-3.1,0-5.746,0.654-7.939,1.962c-2.194,1.309-4.237,3.149-6.128,5.524v27.772c1.69,2.093,3.532,3.553,5.524,4.377
		c1.993,0.825,4.156,1.237,6.49,1.237c2.254,0,4.287-0.422,6.098-1.268c1.811-0.845,3.351-2.133,4.619-3.864
		c1.268-1.729,2.243-3.914,2.928-6.55c0.684-2.637,1.026-5.745,1.026-9.328c0-3.623-0.292-6.691-0.875-9.207
		c-0.584-2.516-1.419-4.559-2.505-6.129c-1.087-1.569-2.406-2.717-3.955-3.441C119.465,261.541,117.704,261.179,115.733,261.179z"/>
	<path d="M155.398,312.497v-61.944h8.754c1.529,0,2.596,0.281,3.2,0.845c0.604,0.564,1.005,1.53,1.208,2.898l0.906,7.486
		c2.213-3.823,4.809-6.843,7.788-9.057c2.978-2.213,6.319-3.32,10.022-3.32c3.058,0,5.594,0.705,7.607,2.113l-1.932,11.169
		c-0.121,0.725-0.383,1.238-0.785,1.54c-0.403,0.302-0.946,0.452-1.63,0.452c-0.604,0-1.429-0.141-2.476-0.422
		c-1.047-0.281-2.436-0.423-4.166-0.423c-3.1,0-5.756,0.855-7.969,2.565c-2.214,1.712-4.086,4.217-5.615,7.517v38.58H155.398z"/>
	<path d="M218.368,250.553v39.364c0,3.783,0.875,6.712,2.627,8.784c1.75,2.073,4.377,3.109,7.879,3.109
		c2.576,0,4.99-0.573,7.244-1.721c2.254-1.146,4.387-2.727,6.4-4.739v-44.798h14.912v61.944h-9.115
		c-1.934,0-3.201-0.905-3.805-2.717l-1.025-4.951c-1.289,1.289-2.617,2.466-3.986,3.532c-1.367,1.067-2.828,1.973-4.377,2.717
		c-1.549,0.745-3.221,1.328-5.01,1.751c-1.793,0.423-3.713,0.634-5.766,0.634c-3.383,0-6.371-0.573-8.967-1.721
		c-2.596-1.146-4.779-2.767-6.551-4.86c-1.771-2.092-3.109-4.578-4.015-7.456c-0.906-2.877-1.358-6.047-1.358-9.509v-39.364H218.368
		z"/>
	<path d="M273.369,312.497v-61.944h9.116c1.933,0,3.2,0.905,3.804,2.717l1.026,4.89c1.247-1.287,2.566-2.454,3.955-3.501
		s2.857-1.952,4.407-2.717c1.549-0.765,3.209-1.349,4.98-1.751c1.771-0.402,3.703-0.604,5.796-0.604
		c3.381,0,6.379,0.574,8.996,1.721c2.616,1.147,4.8,2.758,6.551,4.83c1.751,2.074,3.079,4.549,3.984,7.427
		c0.906,2.878,1.358,6.048,1.358,9.509v39.425h-14.912v-39.425c0-3.783-0.876-6.711-2.626-8.784
		c-1.751-2.073-4.378-3.109-7.879-3.109c-2.577,0-4.992,0.584-7.245,1.75c-2.255,1.168-4.388,2.758-6.4,4.771v44.798H273.369z"/>
	<path d="M385.546,263.653c-0.443,0.564-0.876,1.007-1.298,1.329c-0.423,0.322-1.037,0.482-1.842,0.482
		c-0.765,0-1.51-0.231-2.233-0.694c-0.725-0.462-1.591-0.985-2.597-1.569c-1.007-0.583-2.203-1.106-3.592-1.57
		c-1.389-0.462-3.109-0.694-5.162-0.694c-2.617,0-4.911,0.474-6.883,1.419c-1.973,0.946-3.613,2.305-4.921,4.075
		c-1.309,1.771-2.285,3.915-2.928,6.431c-0.645,2.516-0.967,5.363-0.967,8.543c0,3.301,0.353,6.239,1.057,8.814
		c0.704,2.576,1.721,4.739,3.049,6.49c1.329,1.751,2.938,3.079,4.83,3.984c1.892,0.906,4.024,1.358,6.4,1.358
		c2.374,0,4.296-0.291,5.766-0.875c1.469-0.583,2.706-1.228,3.713-1.932c1.006-0.704,1.881-1.349,2.626-1.933
		c0.745-0.583,1.579-0.875,2.506-0.875c1.208,0,2.113,0.463,2.717,1.389l4.287,5.434c-1.651,1.932-3.441,3.553-5.374,4.86
		c-1.932,1.309-3.935,2.354-6.007,3.14c-2.073,0.784-4.217,1.337-6.43,1.66c-2.215,0.321-4.408,0.482-6.581,0.482
		c-3.824,0-7.427-0.715-10.808-2.143c-3.381-1.429-6.33-3.512-8.845-6.249c-2.516-2.737-4.508-6.088-5.978-10.053
		c-1.47-3.964-2.203-8.482-2.203-13.554c0-4.548,0.653-8.765,1.962-12.648c1.308-3.885,3.23-7.245,5.766-10.083
		c2.536-2.838,5.676-5.062,9.419-6.672c3.743-1.609,8.05-2.415,12.92-2.415c4.628,0,8.684,0.746,12.166,2.234
		c3.48,1.489,6.611,3.622,9.388,6.399L385.546,263.653z"/>
	<path d="M399.612,312.497V222.78h14.912v34.474c2.415-2.294,5.072-4.146,7.97-5.555c2.898-1.408,6.299-2.113,10.203-2.113
		c3.381,0,6.379,0.574,8.996,1.721c2.616,1.147,4.8,2.758,6.551,4.83c1.751,2.074,3.079,4.549,3.984,7.427
		c0.906,2.878,1.358,6.048,1.358,9.509v39.425h-14.912v-39.425c0-3.783-0.876-6.711-2.626-8.784
		c-1.751-2.073-4.378-3.109-7.879-3.109c-2.577,0-4.992,0.584-7.245,1.75c-2.255,1.168-4.388,2.758-6.4,4.771v44.798H399.612z"/>
	<path d="M486.37,232.5c0,1.289-0.263,2.496-0.785,3.623c-0.523,1.127-1.218,2.112-2.083,2.958s-1.882,1.52-3.049,2.022
		c-1.168,0.504-2.415,0.755-3.743,0.755c-1.288,0-2.506-0.251-3.652-0.755c-1.147-0.503-2.144-1.177-2.989-2.022
		c-0.845-0.846-1.52-1.831-2.022-2.958s-0.754-2.334-0.754-3.623c0-1.328,0.251-2.575,0.754-3.743
		c0.503-1.167,1.178-2.174,2.022-3.019c0.846-0.846,1.842-1.519,2.989-2.022c1.146-0.503,2.364-0.755,3.652-0.755
		c1.328,0,2.575,0.252,3.743,0.755c1.167,0.504,2.184,1.177,3.049,2.022c0.865,0.845,1.56,1.852,2.083,3.019
		C486.107,229.925,486.37,231.172,486.37,232.5z M484.136,250.553v61.944h-14.912v-61.944H484.136z"/>
	<path d="M503.637,312.497v-50.715l-5.373-0.846c-1.168-0.2-2.104-0.604-2.808-1.207c-0.705-0.604-1.057-1.449-1.057-2.536v-6.098
		h9.237v-4.589c0-3.541,0.533-6.721,1.6-9.539c1.066-2.816,2.597-5.212,4.589-7.185c1.992-1.972,4.417-3.48,7.275-4.528
		c2.857-1.046,6.077-1.569,9.66-1.569c2.857,0,5.514,0.383,7.969,1.147l-0.302,7.486c-0.081,1.168-0.624,1.893-1.63,2.173
		c-1.007,0.282-2.174,0.423-3.502,0.423c-1.771,0-3.351,0.191-4.739,0.573c-1.389,0.384-2.565,1.048-3.532,1.993
		c-0.966,0.946-1.7,2.194-2.203,3.743c-0.504,1.55-0.755,3.472-0.755,5.766v4.105h16.12v10.626H518.55v50.775H503.637z"/>
	<path d="M565.279,329.522c-0.443,1.047-1.018,1.842-1.721,2.385c-0.705,0.544-1.781,0.815-3.23,0.815H549.22l11.592-24.814
		l-25.056-57.355h13.041c1.207,0,2.133,0.281,2.777,0.845c0.643,0.564,1.126,1.208,1.448,1.932l13.223,32.12
		c0.442,1.047,0.824,2.134,1.147,3.26c0.321,1.128,0.604,2.255,0.845,3.381c0.321-1.166,0.674-2.294,1.057-3.381
		c0.382-1.086,0.794-2.193,1.237-3.32l12.438-32.06c0.322-0.805,0.854-1.469,1.6-1.992c0.745-0.522,1.58-0.784,2.506-0.784h11.954
		L565.279,329.522z"/>
</g>
</svg>
