<svg id="add-library" enable-background="new 0 0 300 300" height="512" viewBox="0 0 300 300" width="512" xmlns="http://www.w3.org/2000/svg" xmlns:xlink="http://www.w3.org/1999/xlink"><linearGradient id="SVGID_1_" gradientUnits="userSpaceOnUse" x1="51.358" x2="222.668" y1="263.015" y2="91.705"><stop offset="0" stop-color="#107eff"/><stop offset="1" stop-color="#8f16ff"/></linearGradient><g><path d="m178 76c6.617 0 12-5.383 12-12s-5.383-12-12-12-12 5.383-12 12 5.383 12 12 12zm0-16c2.207 0 4 1.793 4 4s-1.793 4-4 4-4-1.793-4-4 1.793-4 4-4zm-52-12c0-2.209 1.791-4 4-4s4 1.791 4 4-1.791 4-4 4-4-1.791-4-4zm-64.484 42.828 2.828-2.828-2.828-2.828c-1.562-1.562-1.562-4.094 0-5.656s4.094-1.562 5.656 0l2.828 2.828 2.828-2.828c1.562-1.562 4.094-1.562 5.656 0s1.562 4.094 0 5.656l-2.828 2.828 2.828 2.828c1.562 1.562 1.562 4.094 0 5.656-.781.781-1.805 1.172-2.828 1.172s-2.047-.391-2.828-1.172l-2.828-2.828-2.828 2.828c-.781.781-1.805 1.172-2.828 1.172s-2.047-.391-2.828-1.172c-1.563-1.562-1.563-4.093 0-5.656zm176.441 69.223c.027-.699.043-1.379.043-2.051 0-31.98-26.02-58-58-58-18.648 0-36.277 9.188-47.107 24.262-6.416-5.297-14.524-8.262-22.893-8.262-19.85 0-36 16.148-36 36 0 3.07.387 6.094 1.152 9.035-16.923 4-29.152 19.117-29.152 36.965 0 8.007 2.492 15.614 7.052 22h-23.052c-2.209 0-4 1.789-4 4v12c0 2.211 1.791 4 4 4h76.154v12c0 1.488.824 2.852 2.143 3.543.584.305 1.221.457 1.857.457.797 0 1.592-.238 2.273-.707l27.928-19.293h95.645c20.953 0 38-17.047 38-38 0-20.297-15.992-36.93-36.043-37.949zm-1.957 67.949h-90.556c-.292-.502-.679-.952-1.171-1.293l-31.846-22c-1.227-.84-2.818-.934-4.131-.25-1.318.691-2.143 2.055-2.143 3.543v12h-42.844c-.163-.268-.29-.554-.521-.785-5.667-5.664-8.788-13.199-8.788-21.215 0-15.406 11.537-28.23 26.834-29.832 1.254-.129 2.373-.844 3.02-1.93.646-1.082.744-2.406.262-3.574-1.405-3.398-2.116-6.988-2.116-10.664 0-15.438 12.561-28 28-28 7.818 0 15.35 3.336 20.658 9.152.857.938 2.104 1.398 3.361 1.285 1.26-.129 2.383-.848 3.031-1.934 9.13-15.343 25.188-24.503 42.95-24.503 27.57 0 50 22.43 50 50 0 1.75-.113 3.605-.348 5.672-.133 1.184.449 2.348 1.273 3.207s2.195 1.285 3.352 1.207c.57-.043 1.141-.086 1.723-.086 16.543 0 30 13.457 30 30s-13.457 30-30 30z" fill="url(#SVGID_1_)"/></g></svg>