<svg id="drag" enable-background="new 0 0 300 300" height="512" viewBox="0 0 300 300" width="512" xmlns="http://www.w3.org/2000/svg" xmlns:xlink="http://www.w3.org/1999/xlink"><linearGradient id="SVGID_1_" gradientUnits="userSpaceOnUse" x1="80.998" x2="222.828" y1="221.002" y2="79.172"><stop offset="0" stop-color="#107eff"/><stop offset="1" stop-color="#8f16ff"/></linearGradient><g><path d="m197.516 110.828 2.828-2.828-2.828-2.828c-1.562-1.562-1.562-4.094 0-5.656s4.094-1.562 5.656 0l2.828 2.828 2.828-2.828c1.562-1.562 4.094-1.562 5.656 0s1.562 4.094 0 5.656l-2.828 2.828 2.828 2.828c1.562 1.562 1.562 4.094 0 5.656-.781.781-1.805 1.172-2.828 1.172s-2.047-.391-2.828-1.172l-2.828-2.828-2.828 2.828c-.781.781-1.805 1.172-2.828 1.172s-2.047-.391-2.828-1.172c-1.563-1.562-1.563-4.093 0-5.656zm-99.516 85.172c-2.209 0-4 1.791-4 4s1.791 4 4 4 4-1.791 4-4-1.791-4-4-4zm108-124c2.209 0 4-1.791 4-4s-1.791-4-4-4-4 1.791-4 4 1.791 4 4 4zm68 70.223v19.555c0 5.637-4.586 10.223-10.223 10.223h-5.98c-2.065 29.012-26.269 52-55.797 52-20.311 0-38.177-10.769-48-27.141v35.708c6.882 1.789 12 7.998 12 15.432 0 8.824-7.176 16-16 16s-16-7.176-16-16c0-7.435 5.118-13.644 12-15.432v-56.568h-9.777c-5.637 0-10.223-4.586-10.223-10.223v-27.555c0-5.637 4.586-10.223 10.223-10.223h9.089c-3.848-22.722-23.887-39.999-47.312-39.999-25.117 0-45.753 19.4-47.797 44h5.575c5.636 0 10.222 4.586 10.222 10.223v19.555c0 5.636-4.586 10.222-10.223 10.222h-19.554c-5.637 0-10.223-4.586-10.223-10.223v-19.555c0-5.636 4.586-10.222 10.223-10.222h5.98c2.065-29.012 26.268-52 55.797-52 20.138 0 38.122 10.959 48 27.328v-39.896c-6.882-1.789-12-7.998-12-15.432 0-8.824 7.176-16 16-16s16 7.176 16 16c0 7.435-5.118 13.644-12 15.432v60.568h9.777c5.637 0 10.223 4.586 10.223 10.223v27.555c0 5.637-4.586 10.223-10.223 10.223h-9.07c3.841 22.994 23.641 40 47.293 40 25.119 0 45.754-19.4 47.797-44h-5.575c-5.637 0-10.223-4.586-10.223-10.223v-19.555c0-5.637 4.586-10.223 10.223-10.223h19.555c5.637 0 10.223 4.586 10.223 10.223zm-218.223-2.223h-19.554c-1.225 0-2.223.996-2.223 2.223v19.555c0 1.227.998 2.223 2.223 2.223h19.555c1.225 0 2.223-.996 2.223-2.223v-19.555c-.001-1.227-.999-2.223-2.224-2.223zm94.223-80c4.41 0 8-3.59 8-8s-3.59-8-8-8-8 3.59-8 8 3.59 8 8 8zm0 180c-4.41 0-8 3.59-8 8s3.59 8 8 8 8-3.59 8-8-3.59-8-8-8zm116-97.777c0-1.227-.996-2.223-2.223-2.223h-19.555c-1.227 0-2.223.996-2.223 2.223v19.555c0 1.227.996 2.223 2.223 2.223h19.555c1.227 0 2.223-.996 2.223-2.223z" fill="url(#SVGID_1_)"/></g></svg>