<?xml version="1.0" encoding="utf-8"?>
<!-- Generator: Adobe Illustrator 17.0.0, SVG Export Plug-In . SVG Version: 6.00 Build 0)  -->
<!DOCTYPE svg PUBLIC "-//W3C//DTD SVG 1.1//EN" "http://www.w3.org/Graphics/SVG/1.1/DTD/svg11.dtd">
<svg version="1.1" id="Layer_1" xmlns="http://www.w3.org/2000/svg" xmlns:xlink="http://www.w3.org/1999/xlink" x="0px" y="0px"
	 width="512px" height="512px" viewBox="0 0 512 512" enable-background="new 0 0 512 512" xml:space="preserve">
<linearGradient id="SVGID_1_" gradientUnits="userSpaceOnUse" x1="0" y1="256.0037" x2="512" y2="256.0037">
	<stop  offset="0" style="stop-color:#9A52A5"/>
	<stop  offset="0.5538" style="stop-color:#4173B3"/>
	<stop  offset="1" style="stop-color:#4FACFE"/>
</linearGradient>
<path fill="url(#SVGID_1_)" d="M256,10.667c-141.44,0-256,112.64-256,251.563c0,111.168,73.344,205.44,175.04,238.677
	c12.8,2.368,17.493-5.419,17.493-12.096c0-5.973-0.213-21.803-0.32-42.773c-71.211,15.168-86.229-33.749-86.229-33.749
	c-11.648-29.035-28.48-36.8-28.48-36.8c-23.189-15.595,1.792-15.275,1.792-15.275c25.707,1.749,39.211,25.92,39.211,25.92
	c22.827,38.464,59.925,27.349,74.56,20.928c2.304-16.277,8.896-27.349,16.213-33.643c-56.853-6.293-116.608-27.925-116.608-124.309
	c0-27.456,9.92-49.899,26.347-67.499c-2.88-6.357-11.52-31.936,2.24-66.581c0,0,21.44-6.741,70.4,25.792
	c20.48-5.589,42.24-8.363,64-8.491c21.76,0.128,43.52,2.901,64,8.491c48.64-32.533,70.08-25.792,70.08-25.792
	c13.76,34.645,5.12,60.224,2.56,66.581c16.32,17.6,26.24,40.043,26.24,67.499c0,96.64-59.84,117.909-116.8,124.096
	c8.96,7.552,17.28,22.976,17.28,46.549c0,33.664-0.32,60.715-0.32,68.885c0,6.592,4.48,14.464,17.6,11.947
	C438.72,467.563,512,373.227,512,262.229C512,123.307,397.376,10.667,256,10.667z"/>
</svg>
