<?xml version="1.0" encoding="utf-8"?>
<!-- Generator: Adobe Illustrator 17.0.0, SVG Export Plug-In . SVG Version: 6.00 Build 0)  -->
<!DOCTYPE svg PUBLIC "-//W3C//DTD SVG 1.1//EN" "http://www.w3.org/Graphics/SVG/1.1/DTD/svg11.dtd">
<svg version="1.1" id="Layer_1" xmlns="http://www.w3.org/2000/svg" xmlns:xlink="http://www.w3.org/1999/xlink" x="0px" y="0px"
	 width="1080px" height="1000px" viewBox="0 0 1080 1000" enable-background="new 0 0 1080 1000" xml:space="preserve">
<linearGradient id="SVGID_1_" gradientUnits="userSpaceOnUse" x1="120.082" y1="604.4128" x2="1220.1136" y2="-495.6188" gradientTransform="matrix(-1 0 0 1 1205.9923 0)">
	<stop  offset="0" style="stop-color:#6B1687"/>
	<stop  offset="0.1727" style="stop-color:#6A1988"/>
	<stop  offset="0.3092" style="stop-color:#66208B"/>
	<stop  offset="0.4335" style="stop-color:#5F2C91"/>
	<stop  offset="0.5505" style="stop-color:#553C99"/>
	<stop  offset="0.6623" style="stop-color:#4750A2"/>
	<stop  offset="0.7703" style="stop-color:#3667AD"/>
	<stop  offset="0.8752" style="stop-color:#2280B8"/>
	<stop  offset="0.9752" style="stop-color:#0C9AC3"/>
	<stop  offset="1" style="stop-color:#00A0C6"/>
</linearGradient>
<path fill="url(#SVGID_1_)" d="M-185.967-320.718c240.413,0.122,480.826,0.109,721.24,0.109c0,7.385,0.002,14.77,0.002,22.156
	c218.408,0.001,436.815,0.003,655.222-0.107c4.028-0.002,4.875,0.767,4.873,4.846c-0.002,4.164-0.002,8.328-0.004,12.492
	c2.196-0.001,4.392-0.001,6.589-0.002c3.749-0.002,4.595,0.844,4.593,4.594c-0.103,253.5-0.093,507-0.093,760.5
	c-11.16-5.978-21.485-13.312-32.281-19.883c-13.592-8.273-27.054-16.76-40.698-24.944c-29.649-17.785-60.126-34.004-91.907-47.676
	c-39.704-17.08-80.703-29.692-123.837-34.253c-36.326-3.841-72.114-0.101-107.394,9.091c-13.691,3.567-27.247,7.577-40.688,11.994
	c-35.267,11.588-69.544,25.867-104.485,38.339c-15.042,5.369-30.133,10.605-45.516,14.942c0,0,0,0,0,0
	c-34.465,10.395-69.486,17.177-105.691,15.333c-12.55-0.639-24.874-2.956-37.288-5.299c-44.145-8.334-84.248-27.072-124.391-45.929
	c-13.234-6.217-26.428-12.519-40.147-19.023c0.135-0.084,0.251-0.155,0.382-0.237c-1.36-0.581-2.718-1.167-4.075-1.757
	c-0.758-0.171-1.564-0.605-2.367-1.031c-12.739-5.585-25.355-11.501-37.975-17.429c-7.362-3.458-14.721-6.948-22.156-10.479
	c-26.443-10.502-53.349-19.942-81.574-24.939c-31.474-5.573-62.809-5.094-94.345-0.081c-46.847,7.446-90.972,23.592-134.855,40.674
	c-13.944,5.428-27.811,11.054-41.713,16.589c0-23.994-0.002-47.988-0.002-71.983c-14.235,5.039-28.364,10.427-42.467,15.916
	c-13.944,5.428-27.811,11.054-41.712,16.589c0-218.088,0.015-436.176-0.113-654.264
	C-190.842-319.951-189.995-320.72-185.967-320.718z"/>
<linearGradient id="SVGID_2_" gradientUnits="userSpaceOnUse" x1="-26.4601" y1="515.91" x2="1073.5715" y2="-584.1216">
	<stop  offset="0" style="stop-color:#6B1687"/>
	<stop  offset="0.1727" style="stop-color:#6A1988"/>
	<stop  offset="0.3092" style="stop-color:#66208B"/>
	<stop  offset="0.4335" style="stop-color:#5F2C91"/>
	<stop  offset="0.5505" style="stop-color:#553C99"/>
	<stop  offset="0.6623" style="stop-color:#4750A2"/>
	<stop  offset="0.7703" style="stop-color:#3667AD"/>
	<stop  offset="0.8752" style="stop-color:#2280B8"/>
	<stop  offset="0.9752" style="stop-color:#0C9AC3"/>
	<stop  offset="1" style="stop-color:#00A0C6"/>
</linearGradient>
<path fill="url(#SVGID_2_)" d="M1245.417-409.221c-240.413,0.122-480.826,0.109-721.24,0.109c0,7.385-0.002,14.77-0.002,22.156
	c-218.408,0.001-436.815,0.003-655.223-0.107c-4.028-0.002-4.875,0.767-4.873,4.846c0.002,4.164,0.002,8.328,0.004,12.492
	c-2.196-0.001-4.392-0.001-6.589-0.002c-3.749-0.002-4.595,0.844-4.593,4.594c0.103,253.5,0.093,507,0.093,760.5
	c11.16-5.978,21.485-13.312,32.281-19.883c13.592-8.273,27.054-16.76,40.698-24.944c29.649-17.785,60.127-34.004,91.907-47.676
	c39.704-17.08,80.703-29.692,123.837-34.253c36.326-3.841,72.114-0.101,107.394,9.091c13.691,3.567,27.247,7.577,40.688,11.994
	c35.267,11.588,69.544,25.867,104.485,38.339c15.042,5.369,30.133,10.605,45.516,14.942c0,0,0,0,0,0
	c34.465,10.395,69.486,17.177,105.691,15.333c12.55-0.639,24.874-2.956,37.288-5.299c44.145-8.334,84.248-27.072,124.391-45.929
	c13.234-6.217,26.428-12.519,40.147-19.023c-0.135-0.084-0.251-0.155-0.382-0.237c1.36-0.581,2.718-1.167,4.075-1.757
	c0.758-0.171,1.564-0.605,2.367-1.031c12.739-5.585,25.355-11.501,37.975-17.429c7.362-3.458,14.721-6.948,22.156-10.479
	c26.443-10.502,53.349-19.942,81.574-24.939c31.474-5.573,62.809-5.094,94.345-0.081c46.847,7.446,90.972,23.592,134.855,40.674
	c13.944,5.428,27.811,11.054,41.713,16.589c0-23.994,0.002-47.988,0.002-71.983c14.235,5.039,28.364,10.427,42.467,15.916
	c13.944,5.428,27.811,11.054,41.712,16.589c0-218.088-0.015-436.176,0.113-654.264
	C1250.292-408.454,1249.445-409.223,1245.417-409.221z"/>
<circle opacity="0.2" fill="#DFE0E2" cx="82.466" cy="-36.279" r="7.249"/>
<circle opacity="0.2" fill="#DFE0E2" cx="617.439" cy="-56.278" r="7.249"/>
</svg>
