<svg height="512pt" viewBox="0 -33 512 511" width="512pt" xmlns="http://www.w3.org/2000/svg"><g fill="#a4c2f7"><path d="m418.132812 269.640625v76.460937c0 7.066407-5.730468 12.796876-12.800781 12.796876h-25.597656c-7.070313 0-12.800781-5.730469-12.800781-12.796876v-64l25.601562-6.230468zm0 0"/><path d="m356.863281 293.023438c-32.902343 8.746093-66.816406 13.105468-100.863281 12.96875-25.777344.054687-51.5-2.402344-76.800781-7.335938v-42.753906c25.164062 5.980468 50.933593 9.046875 76.800781 9.132812 10.972656-.019531 21.9375-.589844 32.851562-1.707031zm0 0"/><path d="m256 9.035156c-4.265625 0-8.535156.082032-12.714844.167969 130.730469 4.097656 234.582032 68.863281 234.582032 148.308594 0 58.113281-55.550782 108.375-136.535157 132.695312-2.386719.769531-4.777343 1.449219-7.167969 2.046875 7.453126 1.667969 15.152344 1.925782 22.699219.769532h.34375c3.242188-.855469 6.484375-1.792969 9.726563-2.816407 80.980468-24.320312 136.53125-74.582031 136.53125-132.695312 0-82.003907-110.761719-148.476563-247.464844-148.476563zm0 0"/><path d="m183.464844 226.207031v193.195313c.027344 5.394531-3.332032 10.222656-8.398438 12.078125s-10.75.332031-14.214844-3.800781l-3.667968-4.351563-41.8125-49.921875c-1.34375-1.699219-3.152344-2.972656-5.207032-3.667969-1.757812-.710937-3.65625-1.003906-5.546874-.855469l-25.171876-20.90625c-11.859374.9375-5.289062.511719 3.242188-7.765624l75.179688-105.300782 7.765624-10.921875c4.011719-3.925781 5.546876-11.433593 9.898438-9.558593 4.828125 1.902343 7.984375 6.585937 7.933594 11.777343zm0 0"/><path d="m392.535156 275.871094v70.230468c0 7.066407-5.734375 12.796876-12.800781 12.796876-7.070313 0-12.800781-5.730469-12.800781-12.796876v-64zm0 0"/></g><path d="m243.285156 9.203125h-.171875c-130.730469 4.097656-234.578125 68.863281-234.578125 148.308594 0 42.667969 30.035156 81.152343 78.078125 108.117187 5.375 3.074219 10.921875 5.976563 16.726563 8.707032l32.765625-32.085938c-46.761719-19.03125-80.722657-48.8125-80.722657-84.738281 0-60.585938 96.511719-103.507813 187.816407-107.175781 4.265625-.257813 8.535156-.34375 12.800781-.34375 94.890625 0 200.617188 44.117187 200.617188 107.519531 0 23.808593-14.847657 44.800781-38.484376 61.867187v-1.277344c0-1.453124 0-2.816406-.085937-4.269531-.324219-5.238281-1.269531-10.425781-2.816406-15.445312-11.101563-32.539063-42.371094-53.824219-76.714844-52.222657-2.71875.167969-5.425781.507813-8.105469 1.023438-51.625 9.558594-74.921875 74.070312-41.558594 116.140625 11.285157 14.613281 27.308594 24.84375 45.3125 28.925781 2.390626-.597656 4.78125-1.277344 7.167969-2.046875 80.984375-24.320312 136.535157-74.582031 136.535157-132.695312 0-79.445313-103.851563-144.210938-234.582032-148.308594zm123.648438 236.460937c-8.527344 2.617188-17.636719 2.675782-26.199219.167969-16.46875-5.628906-16.46875-24.0625-16.46875-27.730469 0-11.785156 9.550781-21.335937 21.335937-21.335937 11.78125 0 21.332032 9.550781 21.332032 21.335937zm0 0" fill="#e3e7f2"/><path d="m157.867188 234.910156v184.492188c.039062 1.339844-.195313 2.675781-.683594 3.925781l-41.8125-49.921875c-1.34375-1.699219-3.152344-2.972656-5.207032-3.667969-1.757812-.710937-3.65625-1.003906-5.546874-.855469l-25.171876-20.90625c-11.859374.9375-5.289062.511719 3.242188-7.765624zm0 0" fill="#a4c2f7"/><path d="m175.53125 214.429688-65.367188 155.308593c-1.757812-.710937-3.65625-1.003906-5.546874-.855469l-70.996094 5.378907c-5.328125.363281-10.324219-2.621094-12.53125-7.488281-2.203125-4.867188-1.15625-10.589844 2.632812-14.359376l137.984375-135.339843c3.628907-3.632813 9.109375-4.679688 13.824219-2.644531zm0 0" fill="#e3e7f2"/><path d="m86.613281 265.628906c5.375 3.074219 10.921875 5.976563 16.71875 8.707032l8.871094-8.707032c-48.03125-26.964844-78.070313-65.449218-78.070313-108.117187 0-79.359375 103.65625-144.082031 234.214844-148.289063-4.097656-.125-8.210937-.1875-12.347656-.1875-4.265625 0-8.535156.082032-12.714844.167969h-.171875c-130.730469 4.097656-234.578125 68.863281-234.578125 148.308594 0 42.667969 30.035156 81.152343 78.078125 108.117187zm0 0" fill="#fff"/><path d="m33.621094 374.261719 18.851562-1.425781c-3.65625-1.855469-6.191406-5.355469-6.816406-9.402344-.625-4.050782.742188-8.152344 3.667969-11.019532l79.605469-78.078124c-5.792969-2.730469-11.339844-5.632813-16.707032-8.695313l-8.882812 8.695313-79.617188 78.078124c-3.789062 3.769532-4.835937 9.492188-2.632812 14.359376 2.207031 4.867187 7.203125 7.851562 12.53125 7.488281zm0 0" fill="#fff"/><path d="m266.929688 305.644531c-19.414063-.65625-38.753907-2.75-57.863282-6.257812v3.816406c15.578125 1.835937 31.25 2.765625 46.933594 2.789063 3.695312 0 7.277344-.253907 10.929688-.347657zm0 0" fill="#fff"/><path d="m281.601562 265.035156c2.8125 0 5.679688-.148437 8.53125-.230468-.410156-.496094-.851562-.964844-1.269531-1.476563-6.339843.636719-12.726562 1.058594-19.097656 1.339844 3.941406.152343 7.910156.367187 11.835937.367187zm0 0" fill="#fff"/><path d="m99.703125 282.058594c-17.402344-8.132813-33.78125-18.292969-48.792969-30.277344-15.378906-12.246094-28.230468-27.367188-37.835937-44.519531-8.402344-15.246094-12.894531-32.339844-13.074219-49.75h17.066406c.175782 14.585937 3.96875 28.902343 11.035156 41.660156 16.492188 30.3125 46.8125 52.183594 78.871094 67.414063zm0 0" fill="#fff"/><path d="m256 .5c-141.160156 0-256 70.433594-256 157.011719.179688 17.410156 4.671875 34.503906 13.074219 49.75 1.40625 2.714843 2.953125 5.351562 4.632812 7.902343 1.195313 2.007813 3.179688 3.417969 5.472657 3.882813 2.289062.464844 4.667968-.058594 6.550781-1.441406 3.632812-2.707031 4.65625-7.710938 2.371093-11.621094-1.457031-2.203125-2.792968-4.480469-4-6.828125-7.0625-12.757812-10.855468-27.0625-11.035156-41.644531 0-77.164063 107.1875-139.945313 238.933594-139.945313s238.933594 62.78125 238.933594 139.945313c0 41.328125-30.71875 78.507812-79.554688 104.109375-.566406.226562-1.109375.511718-1.613281.851562-15.320313 7.828125-31.3125 14.257813-47.789063 19.210938-.597656.003906-1.191406.078125-1.773437.210937-25.636719 7.332031-53.113281-2.230469-68.660156-23.894531-14.820313-18.902344-17.917969-44.472656-8.039063-66.371094 8.855469-21.09375 28.832032-35.402344 51.652344-36.992187 17.832031-.917969 35.300781 5.285156 48.554688 17.246093 12.683593 10.632813 20.554687 25.925782 21.828124 42.429688v.519531c-10.722656 7.203125-22.136718 13.316407-34.074218 18.253907v-14.984376c0-16.496093-13.371094-29.867187-29.863282-29.867187-16.496093 0-29.867187 13.371094-29.867187 29.867187-.855469 11.773438 3.960937 23.25 12.96875 30.878907 6.6875 4.988281 14.882813 7.527343 23.21875 7.203125 5.738281-.070313 11.445313-.816406 17.007813-2.226563.152343 0 .265624-.144531.410156-.1875.144531-.042969.351562 0 .527344-.09375l.359374-.144531h.050782c18.777344-6.625 36.558594-15.785156 52.855468-27.222656 27.488282-19.847656 42.019532-43.628906 42.019532-68.777344 0-69.417969-108.144532-116.054688-209.152344-116.054688s-209.152344 46.617188-209.152344 116.035157c0 33.90625 26.914063 65.339843 74.28125 87.476562l-19.335937 18.953125c-8.097657-4.011718-15.972657-8.460937-23.59375-13.320312-3.882813-2.496094-9.039063-1.480469-11.691407 2.292968-1.304687 1.894532-1.792968 4.234376-1.351562 6.492188s1.773438 4.238281 3.699219 5.5c6.519531 4.222656 13.277343 8.003906 20.113281 11.613281l-75.511719 74.027344c-6.40625 6.273437-8.207031 15.878906-4.503906 24.046875 3.699219 8.167969 12.109375 13.148438 21.050781 12.464844l70.980469-5.382813c1.363281-.078125 2.683594.480469 3.582031 1.511719l45.492188 54.21875c3.996094 4.839844 9.9375 7.65625 16.214844 7.679688 2.523437-.003907 5.027343-.445313 7.398437-1.3125 8.488281-3.015626 14.132813-11.078126 14.0625-20.089844v-114.910156c22.554687 3.824218 45.390625 5.746093 68.265625 5.753906 34.5625.101562 68.988281-4.320313 102.398438-13.152344v44.726562c0 5.65625 2.25 11.082032 6.25 15.082032 4 4.003906 9.425781 6.25 15.085937 6.25h25.597656c11.785157 0 21.335938-9.550782 21.335938-21.332032v-71.679687c52.332031-28.777344 85.332031-70.519531 85.332031-116.910156 0-86.578125-114.839844-157.011719-256-157.011719zm83.257812 235.066406c-4.714843-4.523437-7.09375-10.960937-6.457031-17.464844 0-7.070312 5.730469-12.800781 12.800781-12.800781 7.066407 0 12.796876 5.730469 12.796876 12.800781v20.53125c-6.535157 1.503907-13.398438.402344-19.140626-3.066406zm-275.34375-78.054687c0-56.652344 101.410157-98.984375 192.085938-98.984375s192.085938 42.332031 192.085938 98.984375c-1.042969 17.628906-9.394532 34.023437-23.039063 45.226562-3.726563-16.992187-12.886719-32.308593-26.089844-43.636719-16.6875-14.976562-38.648437-22.699218-61.035156-21.472656-29.164063 1.996094-54.714844 20.25-66.050781 47.191406-10.136719 22.8125-9.320313 49 2.21875 71.132813-6.144532.316406-12.167969.546875-18.089844.546875-22.957031-.125-45.835938-2.652344-68.265625-7.542969v-18.476562c-.003906-8.585938-5.15625-16.339844-13.074219-19.664063-7.917968-3.328125-17.058594-1.578125-23.195312 4.433594l-17.242188 16.90625c-44.734375-19.382812-70.308594-46.390625-70.308594-74.644531zm106.753907 266.171875c0 1.796875-1.121094 3.40625-2.8125 4.019531-1.6875.613281-3.582031.101563-4.730469-1.277344l-45.492188-54.214843c-4.054687-4.828126-10.035156-7.617188-16.34375-7.621094-.527343 0-1.066406 0-1.59375.0625l-70.988281 5.382812c-1.785156.128906-3.464843-.867187-4.199219-2.5-.738281-1.632812-.375-3.550781.90625-4.804687l138-135.296875c1.226563-1.199219 3.054688-1.550782 4.636719-.886719 1.585938.667969 2.617188 2.21875 2.617188 3.933594zm17.066406-132.195313v-25.089843c22.460937 4.652343 45.328125 7.050781 68.265625 7.167968 9.53125 0 19.371094-.527344 29.277344-1.40625 7.625 8.820313 16.902344 16.066406 27.308594 21.332032-18.746094 2.65625-37.65625 3.980468-56.585938 3.96875-22.886719.015624-45.730469-1.984376-68.265625-5.972657zm221.867187 54.613281c0 2.355469-1.910156 4.265626-4.269531 4.265626h-25.597656c-2.359375 0-4.269531-1.910157-4.269531-4.265626v-49.785156c11.632812-3.75 23.027344-8.183594 34.136718-13.277344zm0 0" fill="#428dff"/><path d="m48.835938 245.046875c.5625-.140625 1.101562-.359375 1.605468-.648437.503906-.207032.976563-.496094 1.390625-.851563.441407-.363281.859375-.757813 1.246094-1.179687 1.433594-1.730469 2.195313-3.921876 2.148437-6.167969-.085937-1.082031-.375-2.140625-.851562-3.113281-1.359375-3.015626-4.375-4.941407-7.679688-4.90625-1.121093.050781-2.226562.296874-3.261718.730468-1.039063.390625-1.996094.96875-2.824219 1.707032-1.613281 1.570312-2.535156 3.722656-2.558594 5.972656.125 2.34375 1.113281 4.554687 2.773438 6.214844 1.703125 1.625 3.992187 2.5 6.347656 2.421874zm0 0" fill="#428dff"/></svg>