<svg id="layers" enable-background="new 0 0 300 300" height="512" viewBox="0 0 300 300" width="512" xmlns="http://www.w3.org/2000/svg" xmlns:xlink="http://www.w3.org/1999/xlink"><linearGradient id="SVGID_1_" gradientUnits="userSpaceOnUse" x1="80.181" x2="234.942" y1="218.932" y2="64.172"><stop offset="0" stop-color="#107eff"/><stop offset="1" stop-color="#8f16ff"/></linearGradient><g><path d="m205.113 44c0-2.209 1.791-4 4-4s4 1.791 4 4-1.791 4-4 4-4-1.791-4-4zm11.516 48.484c.781.781 1.805 1.172 2.828 1.172s2.047-.391 2.828-1.172l2.828-2.828 2.828 2.828c.781.781 1.805 1.172 2.828 1.172s2.047-.391 2.828-1.172c1.562-1.562 1.562-4.094 0-5.656l-2.827-2.828 2.828-2.828c1.562-1.562 1.562-4.094 0-5.656s-4.094-1.562-5.656 0l-2.828 2.828-2.828-2.828c-1.562-1.562-4.094-1.562-5.656 0s-1.562 4.094 0 5.656l2.827 2.828-2.828 2.828c-1.563 1.563-1.563 4.094 0 5.656zm-59.516-24.484c0-6.617 5.383-12 12-12s12 5.383 12 12-5.383 12-12 12-12-5.383-12-12zm8 0c0 2.207 1.793 4 4 4s4-1.793 4-4-1.793-4-4-4-4 1.793-4 4zm71.774 128.684c-.004 5.027-2.855 9.418-7.449 11.461l-24.324 10.812v45.043c0 2.211-1.789 4-4 4h-12c-2.211 0-4-1.789-4-4v-36.149l-30.035 13.349c-1.621.719-3.359 1.082-5.098 1.082s-3.48-.363-5.098-1.086l-74.34-33.109c-4.59-2.043-7.438-6.434-7.438-11.457.004-5.027 2.855-9.414 7.449-11.457l10.208-4.539-10.208-4.547c-4.59-2.043-7.438-6.434-7.438-11.457s2.855-9.414 7.445-11.457l14.671-6.524-14.679-6.531c-4.594-2.047-7.445-6.438-7.445-11.461s2.852-9.414 7.445-11.461l11.25-5.004-3.98-5.762c-.848-1.223-.945-2.816-.254-4.133s2.055-2.141 3.543-2.141h12v-64.156c0-2.211 1.789-4 4-4h12c2.211 0 4 1.789 4 4v62.259l31.789-14.146c3.234-1.438 6.961-1.441 10.195.004l74.348 33.078c4.594 2.047 7.445 6.438 7.445 11.461s-2.852 9.414-7.445 11.461l-14.718 6.549 14.729 6.561c4.59 2.043 7.438 6.434 7.438 11.457 0 5.027-2.852 9.414-7.445 11.461l-10.206 4.536 10.206 4.546c4.591 2.043 7.439 6.433 7.439 11.457zm-148.149-88.528 14.375 20.805 14.375-20.809-8.375.004c-1.059 0-2.078-.422-2.828-1.172s-1.172-1.766-1.172-2.828v-64.156h-4v64.156c0 2.211-1.789 4-4 4zm-14.933 24.649 74.348 33.082c1.18.523 2.516.52 3.695.004l74.348-33.086c2.5-1.109 2.695-3.457 2.695-4.148s-.195-3.039-2.695-4.148l-74.348-33.082c-1.18-.523-2.516-.52-3.695-.004l-20.949 9.324c.603.37 1.111.897 1.453 1.547.691 1.316.594 2.91-.25 4.133l-22 31.848c-.75 1.082-1.98 1.727-3.293 1.727s-2.543-.645-3.289-1.727l-13.391-19.383-12.629 5.617c-2.5 1.109-2.695 3.457-2.695 4.148s.195 3.038 2.695 4.148zm111.308 86.289v-19.25h-8.979l-21.044 9.355c-1.617.719-3.359 1.082-5.098 1.082s-3.48-.363-5.102-1.086l-54.289-24.181-16.797 7.47c-2.504 1.109-2.699 3.457-2.699 4.148s.195 3.035 2.691 4.145l74.34 33.113c1.172.516 2.516.516 3.688 0zm13.172-26.078c.75-.75 1.766-1.172 2.828-1.172l8.375.004-14.375-20.809-14.375 20.805h8.375c2.211 0 4 1.789 4 4v64.156h4v-64.156c0-1.063.422-2.078 1.172-2.828zm30.602 3.668c0-.691-.195-3.035-2.695-4.152l-9.397-4.186 3.612 5.229c.844 1.223.941 2.816.25 4.133s-2.055 2.141-3.543 2.141l-12-.004v10.355l21.074-9.367c2.503-1.114 2.699-3.458 2.699-4.149z" fill="url(#SVGID_1_)"/></g></svg>