<?xml version="1.0" encoding="utf-8"?>
<!-- Generator: Adobe Illustrator 17.0.0, SVG Export Plug-In . SVG Version: 6.00 Build 0)  -->
<!DOCTYPE svg PUBLIC "-//W3C//DTD SVG 1.1//EN" "http://www.w3.org/Graphics/SVG/1.1/DTD/svg11.dtd">
<svg version="1.1" id="Layer_1" xmlns="http://www.w3.org/2000/svg" xmlns:xlink="http://www.w3.org/1999/xlink" x="0px" y="0px"
	 width="512px" height="512px" viewBox="0 0 512 512" enable-background="new 0 0 512 512" xml:space="preserve">
<linearGradient id="SVGID_1_" gradientUnits="userSpaceOnUse" x1="255" y1="794" x2="255" y2="1306" gradientTransform="matrix(1 0 0 -1 1 1306)">
	<stop  offset="0" style="stop-color:#9A52A5"/>
	<stop  offset="0.5538" style="stop-color:#4173B3"/>
	<stop  offset="1" style="stop-color:#4FACFE"/>
</linearGradient>
<path fill="url(#SVGID_1_)" d="M140.008,423h-30c-11.047,0-20-8.953-20-20V217c0-11.047,8.953-20,20-20h30c11.047,0,20,8.953,20,20
	v186C160.008,414.047,151.055,423,140.008,423z M166.992,124.996c0-22.629-18.359-40.996-40.977-40.996
	C103.313,84,85,102.367,85,124.996C85,147.633,103.313,166,126.016,166C148.633,166,166.992,147.633,166.992,124.996z M422,403
	V298.664C422,237.996,409.184,193,338.313,193c-34.055,0-56.914,17.031-66.246,34.742H272V217c0-11.047-8.953-20-20-20h-28
	c-11.047,0-20,8.953-20,20v186c0,11.047,8.953,20,20,20h28c11.047,0,20-8.953,20-20v-92.211c0-29.387,7.48-57.855,43.906-57.855
	c35.93,0,37.094,33.605,37.094,59.723V403c0,11.047,8.953,20,20,20h29C413.047,423,422,414.047,422,403z M512,432
	c0-11.047-8.953-20-20-20s-20,8.953-20,20c0,22.055-17.945,40-40,40H80c-22.055,0-40-17.945-40-40V80c0-22.055,17.945-40,40-40h352
	c22.055,0,40,17.945,40,40v251c0,11.047,8.953,20,20,20s20-8.953,20-20V80c0-44.113-35.887-80-80-80H80C35.887,0,0,35.887,0,80v352
	c0,44.113,35.887,80,80,80h352C476.113,512,512,476.113,512,432z"/>
</svg>
