<svg id="Capa_1" enable-background="new 0 0 512 512" height="512" viewBox="0 0 512 512" width="512" xmlns="http://www.w3.org/2000/svg" xmlns:xlink="http://www.w3.org/1999/xlink"><linearGradient id="SVGID_1_" gradientUnits="userSpaceOnUse" x1="12.034" x2="499.966" y1="256" y2="256"><stop offset=".0485" stop-color="#ffdbed"/><stop offset=".9993" stop-color="#d2deff"/></linearGradient><g><g><g><path d="m286.593 4.867c-94.351 27.746-75.427 93.585-85.98 166.539-13.171 91.052-70.095 44.365-135.496 93.538-113.054 85.001-30.931 272.636 109.468 244.14 74.552-15.131 89.786-70.095 120.193-128.824 39.333-75.973 104.558-55.26 163.066-104.857 118.655-100.582-37.403-309.897-171.251-270.536z" fill="url(#SVGID_1_)"/></g><g fill="#9fb0fe"><path d="m158.624 233.368-55.159 60.438c-1.855 2.046-1.701 5.208.344 7.062.957.869 2.16 1.297 3.358 1.297 1.361 0 2.718-.553 3.705-1.641l56.175-61.558z"/><path d="m291.957 365.004-79.808 87.602c-1.855 2.046-1.701 5.208.344 7.062.958.869 2.16 1.297 3.358 1.297 1.361 0 2.718-.553 3.705-1.641l78.977-86.685z"/><path d="m227.483 399.738c-2.046-1.857-5.208-1.702-7.063.344l-54.698 60.303c-1.855 2.046-1.701 5.208.344 7.062.958.869 2.16 1.297 3.358 1.297 1.361 0 2.718-.553 3.705-1.641l54.698-60.303c1.856-2.045 1.702-5.207-.344-7.062z"/><path d="m170.744 315.27c-2.046-1.857-5.208-1.702-7.063.344l-92.77 102.276c-1.855 2.046-1.701 5.208.344 7.062.957.869 2.16 1.297 3.358 1.297 1.361 0 2.718-.553 3.705-1.641l92.769-102.275c1.856-2.046 1.702-5.208-.343-7.063z"/><path d="m154.669 359.365-10.707 11.804c-1.855 2.045-1.701 5.207.344 7.062.957.869 2.16 1.297 3.358 1.297 1.361 0 2.718-.553 3.705-1.641l10.707-11.804c1.855-2.045 1.701-5.207-.344-7.062-2.046-1.857-5.208-1.702-7.063.344z"/><path d="m86.928 284.135 10.707-11.805c1.855-2.046 1.701-5.208-.344-7.062-2.046-1.857-5.208-1.702-7.063.344l-10.708 11.804c-1.855 2.046-1.701 5.208.344 7.062.958.869 2.16 1.297 3.358 1.297 1.362 0 2.719-.552 3.706-1.64z"/></g><g><g><path d="m448.693 98.123-254.609 125.319-6.34 29.99 16.789 116.687z" fill="#4369fd"/><path d="m227.217 290.269-22.684 79.85 46.673-51.993z" fill="#6583fe"/><path d="m448.695 98.122-133.48 294.321-88-102.17z" fill="#ff7eb8"/><g><path d="m297.096 313.363c-2.08 1.81-5.24 1.6-7.06-.48l-38.31-43.87 7.55-6.55 38.29 43.84c1.819 2.08 1.609 5.24-.47 7.06z" fill="#fff"/></g><g><path d="m312.666 296.693c-2.08 1.82-5.24 1.6-7.06-.48l-36.74-42.07 7.55-6.56 36.72 42.05c1.819 2.08 1.609 5.239-.47 7.06z" fill="#fff"/></g><g><path d="m328.235 280.023c-2.08 1.82-5.24 1.61-7.06-.47l-35.17-40.28 7.55-6.56 35.16 40.26c1.81 2.08 1.6 5.24-.48 7.05z" fill="#fff"/></g><g><path d="m343.805 263.363c-2.08 1.81-5.24 1.6-7.06-.48l-33.6-38.48 7.55-6.55 33.59 38.45c1.811 2.08 1.6 5.24-.48 7.06z" fill="#fff"/></g><g><path d="m359.375 246.693c-2.08 1.82-5.24 1.6-7.05-.48l-32.04-36.68 7.55-6.56 32.02 36.66c1.811 2.08 1.6 5.239-.48 7.06z" fill="#fff"/></g><g><path d="m368.615 195.723c-2.08 1.82-5.24 1.6-7.06-.48l-10.69-12.24 7.55-6.56 10.68 12.23c1.811 2.08 1.6 5.23-.48 7.05z" fill="#fff"/></g><path d="m187.744 252.765 260.949-154.642-360.115 88.74z" fill="#ff7eb8"/><g><g><path d="m250.555 146.953v41.32c0 4.35-3.53 7.88-7.88 7.88h-54.93c-19.09 0-36.2-8.52-47.71-21.97z" fill="#ff5ba8"/></g></g></g><g><g><g><path d="m242.678 177.649h-54.933c-34.688 0-62.808-28.12-62.808-62.807 0-34.688 28.12-62.807 62.808-62.807 34.688 0 62.807 28.12 62.807 62.807v54.934c0 4.347-3.526 7.873-7.874 7.873z" fill="#02ffb3"/></g></g><g fill="#fff"><circle cx="216.476" cy="114.841" r="9.33"/><circle cx="187.744" cy="114.841" r="9.33"/><circle cx="159.013" cy="114.841" r="9.33"/></g></g><path d="m303.145 89.476c-2.761 0-5-2.238-5-5 0-3.309-2.691-6-6-6-2.761 0-5-2.238-5-5s2.239-5 5-5c3.309 0 6-2.691 6-6 0-2.762 2.239-5 5-5s5 2.238 5 5c0 3.309 2.691 6 6 6 2.761 0 5 2.238 5 5s-2.239 5-5 5c-3.309 0-6 2.691-6 6 0 2.761-2.238 5-5 5z" fill="#6583fe"/><path d="m403.237 371.658c-2.761 0-5-2.238-5-5 0-3.309-2.692-6-6-6-2.761 0-5-2.238-5-5s2.239-5 5-5c3.309 0 6-2.691 6-6 0-2.762 2.239-5 5-5s5 2.238 5 5c0 3.309 2.691 6 6 6 2.761 0 5 2.238 5 5s-2.239 5-5 5c-3.308 0-6 2.691-6 6 0 2.762-2.239 5-5 5z" fill="#01eca5"/><path d="m374.927 408.441c-2.761 0-5-2.238-5-5 0-3.309-2.691-6-6-6-2.761 0-5-2.238-5-5s2.239-5 5-5c3.309 0 6-2.691 6-6 0-2.762 2.239-5 5-5s5 2.238 5 5c0 3.309 2.691 6 6 6 2.761 0 5 2.238 5 5s-2.239 5-5 5c-3.309 0-6 2.691-6 6 0 2.762-2.239 5-5 5z" fill="#ff7eb8"/><path d="m74.615 350.691c-1.326 0-2.598-.526-3.536-1.465l-11.31-11.311c-.938-.938-1.464-2.209-1.464-3.535s.527-2.598 1.464-3.535l11.31-11.31c1.953-1.953 5.119-1.952 7.071-.001l11.311 11.31c.938.938 1.465 2.21 1.465 3.536s-.527 2.598-1.464 3.535l-11.312 11.312c-.938.938-2.209 1.464-3.535 1.464zm-4.239-16.31 4.239 4.239 4.239-4.239-4.239-4.238z" fill="#01eca5"/><path d="m243.907 54.778c-1.28 0-2.559-.488-3.536-1.465l-11.31-11.31c-.938-.938-1.464-2.209-1.464-3.535s.527-2.598 1.464-3.535l11.31-11.311c.938-.938 2.21-1.465 3.536-1.465s2.598.526 3.536 1.465l11.311 11.311c.938.938 1.464 2.209 1.464 3.535s-.527 2.598-1.465 3.536l-11.31 11.31c-.977.976-2.257 1.464-3.536 1.464zm-4.239-16.309 4.239 4.238 4.239-4.238-4.239-4.239z" fill="#ff7eb8"/></g></g></g></svg>