<svg id="before-paragraph" enable-background="new 0 0 300 300" height="512" viewBox="0 0 300 300" width="512" xmlns="http://www.w3.org/2000/svg" xmlns:xlink="http://www.w3.org/1999/xlink"><linearGradient id="SVGID_1_" gradientUnits="userSpaceOnUse" x1="50.516" x2="241.829" y1="226.656" y2="35.343"><stop offset="0" stop-color="#107eff"/><stop offset="1" stop-color="#8f16ff"/></linearGradient><g><path d="m82.484 230.344-2.828 2.828 2.828 2.828c1.562 1.562 1.562 4.094 0 5.656-.781.781-1.805 1.172-2.828 1.172s-2.047-.391-2.828-1.172l-2.828-2.828-2.828 2.828c-.781.781-1.805 1.172-2.828 1.172s-2.047-.391-2.828-1.172c-1.562-1.562-1.562-4.094 0-5.656l2.828-2.828-2.828-2.828c-1.562-1.562-1.562-4.094 0-5.656s4.094-1.562 5.656 0l2.828 2.828 2.828-2.828c1.562-1.562 4.094-1.562 5.656 0s1.563 4.093 0 5.656zm-16.484-89.172c0 6.617-5.383 12-12 12s-12-5.383-12-12 5.383-12 12-12 12 5.383 12 12zm-8 0c0-2.207-1.795-4-4-4s-4 1.793-4 4 1.795 4 4 4 4-1.793 4-4zm156 72v16c0 2.211-1.789 4-4 4h-80c-2.209 0-4-1.789-4-4v-16c0-2.211 1.791-4 4-4h80c2.211 0 4 1.789 4 4zm-8 4h-72v8h72zm-80-68v-16c0-2.211 1.791-4 4-4h80c2.211 0 4 1.789 4 4v16c0 2.211-1.789 4-4 4h-80c-2.209 0-4-1.789-4-4zm8-4h72v-8h-72zm104 28v16c0 2.211-1.789 4-4 4h-104c-2.209 0-4-1.789-4-4v-16c0-2.211 1.791-4 4-4h104c2.211 0 4 1.789 4 4zm-8 4h-96v8h96zm-116-94c0 1.312-.645 2.543-1.727 3.293l-31.846 22c-.682.469-1.477.707-2.273.707-.637 0-1.273-.152-1.857-.457-1.318-.691-2.143-2.055-2.143-3.543v-12h-36.154c-2.209 0-4-1.789-4-4v-12c0-2.211 1.791-4 4-4h36.154v-12c0-1.488.824-2.852 2.143-3.543 1.314-.688 2.906-.594 4.131.25l31.846 22c1.081.75 1.726 1.98 1.726 3.293zm152-22v48c0 2.211-1.789 4-4 4h-132c-2.209 0-4-1.789-4-4v-48c0-2.211 1.791-4 4-4h132c2.211 0 4 1.789 4 4zm-8 4h-124v40h124zm-153.811 113.445c-2.501-.005-4.533 2.02-4.538 4.521s2.02 4.533 4.521 4.538c2.502.005 4.533-2.02 4.538-4.521.005-2.502-2.019-4.533-4.521-4.538z" fill="url(#SVGID_1_)"/></g></svg>