<svg id="Capa_1" enable-background="new 0 0 512 512" height="512" viewBox="0 0 512 512" width="512" xmlns="http://www.w3.org/2000/svg" xmlns:xlink="http://www.w3.org/1999/xlink"><linearGradient id="SVGID_1_" gradientUnits="userSpaceOnUse" x1="5.399" x2="506.601" y1="256" y2="256"><stop offset="0" stop-color="#ffdbed"/><stop offset="1" stop-color="#dcfdee"/></linearGradient><linearGradient id="SVGID_2_" gradientUnits="userSpaceOnUse" x1="281.885" x2="281.885" y1="64.389" y2="303.33"><stop offset=".0028" stop-color="#ff7eb8" stop-opacity="0"/><stop offset="1" stop-color="#ff7eb8" stop-opacity=".6"/></linearGradient><g><g><g><path d="m461.173 27.352c-63.757-37.987-146.258-35.878-208.873 3.041-35.18 21.866-62.374 53.403-93.212 80.552-27.022 23.789-58.445 40.758-86.353 63.204-101.21 81.403-91.553 300.961 50.962 330.125 61.777 12.642 146.21 16.696 182.519-43.642 34.62-57.531 46.232-116.383 113.876-146.942 23.573-10.65 62.975-10.113 78.944-33.45 20.152-29.451-4.853-60.044-18.192-85.707-17.19-33.074-20.795-65.682-8.699-101.16 10.298-30.211 17.549-43.782-10.972-66.021z" fill="url(#SVGID_1_)"/></g><g><g><g><path d="m355.977 419.235h-34.5v-22.536c0-5.523 4.477-10 10-10h14.5c5.523 0 10 4.477 10 10z" fill="#02ffb3"/><g><path d="m245.457 267.485-27.61 27.61-39.46 39.46v84.68h-69v-98.97c0-9.15 3.63-17.93 10.1-24.4l49.94-49.93 27.24-27.24z" fill="#ff7eb8"/></g><g><path d="m186.05 326.89-7.66 7.66v43.99c-14.58 0-26.4-11.82-26.4-26.39 0-14.58 11.82-26.39 26.4-26.39 2.66 0 5.24.39 7.66 1.13z" fill="#ff5ba8"/></g><path d="m245.457 267.485-27.61 27.61c-9.38-5.93-18.16-12.95-26.2-20.99-8.6-8.6-16.03-18.05-22.22-28.17l27.24-27.24z" fill="#ff5ba8"/><g><path d="m394.596 263.494c-53.115 53.115-139.231 53.115-192.345 0-53.115-53.115-53.115-139.231 0-192.345z" fill="#9fb0fe"/><ellipse cx="298.424" cy="167.321" fill="#ff7eb8" rx="51.771" ry="136.009" transform="matrix(.707 -.707 .707 .707 -30.908 260.025)"/><path d="m303.134 162.611c38.099 38.099 62.593 79.45 65.938 107.247-27.803-3.337-69.155-27.832-107.254-65.931s-62.593-79.451-65.931-107.254c27.796 3.345 69.148 27.839 107.247 65.938z" fill="#ff5ba8"/><path d="m335.031 130.714c-53.115-53.115-112.562-79.783-132.78-59.565-53.115 53.115-53.115 139.231 0 192.345 53.115 53.115 139.231 53.115 192.345 0 20.218-20.218-6.45-79.665-59.565-132.78z" fill="url(#SVGID_2_)"/><path d="m337.209 107.591 20.945 20.944c5.862 5.862 5.855 15.358 0 21.213l-74.373 74.373c-7.361-6.201-14.722-12.954-21.963-20.195s-13.994-14.602-20.195-21.963l74.373-74.373c5.855-5.854 15.352-5.861 21.213.001z" fill="#6583fe"/><path d="m303.134 162.611c7.241 7.241 13.994 14.602 20.202 21.956l-39.556 39.555c-7.361-6.201-14.722-12.954-21.963-20.195s-13.994-14.602-20.195-21.963l39.555-39.555c7.355 6.209 14.716 12.962 21.957 20.202z" fill="#4369fd"/><g><path d="m316.046 135.798c1.952 1.952 1.952 5.119 0 7.071l-54.108 54.108c-1.952 1.952-5.119 1.952-7.071 0s-1.952-5.119 0-7.071l54.108-54.108c1.951-1.952 5.119-1.952 7.071 0z" fill="#b7c5ff"/></g><path d="m299.697 159.217-37.76 37.76c-1.952 1.952-5.119 1.952-7.071 0s-1.952-5.119 0-7.071l37.561-37.561c2.434 2.234 4.859 4.532 7.27 6.872z" fill="#9fb0fe"/><circle cx="421.69" cy="44.055" fill="#6583fe" r="11.5"/><g><path d="m328.433 157.274c-1.953 1.953-5.118 1.952-7.071 0l-.082-.081c-1.952-1.952-1.953-5.118 0-7.071s5.119-1.952 7.071 0l.081.081c1.953 1.953 1.954 5.118.001 7.071z" fill="#02ffb3"/></g><g><path d="m316.651 169.056c-1.953 1.953-5.118 1.953-7.071 0l-.081-.081c-1.953-1.952-1.953-5.118 0-7.071s5.119-1.953 7.071 0l.081.081c1.953 1.952 1.953 5.118 0 7.071z" fill="#01eca5"/></g><g><path d="m304.869 180.838c-1.953 1.953-5.118 1.952-7.071 0l-.081-.081c-1.953-1.952-1.953-5.118 0-7.071s5.119-1.952 7.071 0l.081.081c1.953 1.952 1.953 5.118 0 7.071z" fill="#00d890"/></g></g><circle cx="178.386" cy="334.552" fill="#6583fe" r="26.391"/><path d="m185.502 334.552c0 3.93-3.186 7.116-7.115 7.116-3.93 0-7.116-3.186-7.116-7.116s3.186-7.116 7.116-7.116c3.929 0 7.115 3.186 7.115 7.116z" fill="#4369fd"/><path d="m398.94 473.445h-310.13c-5.523 0-10-4.477-10-10v-33c0-11.046 8.954-20 20-20h290.13c11.046 0 20 8.954 20 20v33c0 5.523-4.477 10-10 10z" fill="#ff5ba8"/><path d="m366.053 473.445h-139.602v-21.5c0-5.523 4.477-10 10-10h119.602c5.523 0 10 4.477 10 10z" fill="#9fb0fe"/><g><path d="m204.778 452.06c-2.762 0-5-2.239-5-5v-.115c0-2.761 2.238-5 5-5s5 2.239 5 5v.115c0 2.761-2.239 5-5 5z" fill="#02ffb3"/></g><g><path d="m182.422 452.06c-2.762 0-5-2.239-5-5v-.115c0-2.761 2.238-5 5-5s5 2.239 5 5v.115c0 2.761-2.239 5-5 5z" fill="#02ffb3"/></g><g fill="#6583fe"><circle cx="338.727" cy="347.445" r="14.25"/><circle cx="287.727" cy="371.191" r="14.25"/></g></g></g><path d="m112.303 234.692c-2.762 0-5-2.239-5-5 0-3.309-2.691-6-6-6-2.762 0-5-2.239-5-5s2.238-5 5-5c3.309 0 6-2.691 6-6 0-2.761 2.238-5 5-5s5 2.239 5 5c0 3.309 2.691 6 6 6 2.762 0 5 2.239 5 5s-2.238 5-5 5c-3.309 0-6 2.691-6 6 0 2.761-2.239 5-5 5z" fill="#ff7eb8"/><path d="m409.516 337.437c-2.762 0-5-2.239-5-5 0-3.309-2.691-6-6-6-2.762 0-5-2.239-5-5s2.238-5 5-5c3.309 0 6-2.692 6-6.001 0-2.761 2.238-5 5-5s5 2.239 5 5c0 3.309 2.691 6.001 6 6.001 2.762 0 5 2.239 5 5s-2.238 5-5 5c-3.309 0-6 2.691-6 6 0 2.761-2.239 5-5 5z" fill="#6583fe"/><path d="m433.19 178.123c-2.762 0-5-2.239-5-5 0-3.308-2.692-6-6.001-6-2.762 0-5-2.239-5-5s2.238-5 5-5c3.309 0 6.001-2.691 6.001-6 0-2.761 2.238-5 5-5s5 2.239 5 5c0 3.309 2.691 6 5.999 6 2.762 0 5 2.239 5 5s-2.238 5-5 5c-3.308 0-5.999 2.692-5.999 6 0 2.761-2.238 5-5 5z" fill="#01eca5"/><path d="m73.81 281.155c-1.279 0-2.56-.488-3.535-1.464l-11-11c-1.953-1.953-1.953-5.119 0-7.071l11-11c1.951-1.952 5.119-1.952 7.07 0l11 11c1.953 1.953 1.953 5.119 0 7.071l-11 11c-.975.976-2.255 1.464-3.535 1.464zm-3.928-16 3.929 3.929 3.929-3.929-3.929-3.929z" fill="#01eca5"/><path d="m115.402 125.497c-1.279 0-2.56-.488-3.535-1.464l-11-11c-1.953-1.953-1.953-5.119 0-7.071l11-11c1.951-1.952 5.119-1.952 7.07 0l11 11c1.953 1.953 1.953 5.119 0 7.071l-11 11c-.975.975-2.255 1.464-3.535 1.464zm-3.928-16 3.929 3.929 3.929-3.929-3.929-3.929z" fill="#6583fe"/></g></g><g fill="#2d58e0"><path d="m282.727 384.392h10v26.052h-10z"/><path d="m99.423 329.552c-14.123 0-25.612 11.49-25.612 25.613s11.489 25.613 25.612 25.613h9.964v-10h-9.964c-8.608 0-15.612-7.004-15.612-15.613s7.004-15.613 15.612-15.613h53.197v-10z"/><path d="m404.415 68.402 13.666-13.666c-2.357-2.357-4.714-4.714-7.071-7.071l-13.666 13.666c-4.13-3.352-8.606-5.828-12.946-7.111-6.736-1.991-12.536-.996-16.329 2.799-3.565 3.564-4.658 8.897-3.129 15.114-6.007-1.465-11.471-.514-15.14 3.153-6.466 6.466-4.496 18.515 4.304 29.285l-9.934 9.933 7.071 7.071 9.936-9.936c6.477 5.292 13.415 8.121 19.325 8.121 3.916 0 7.381-1.239 9.958-3.816 3.669-3.67 4.619-9.139 3.149-15.15 1.828.45 3.583.685 5.235.685 3.968 0 7.365-1.285 9.881-3.801 3.796-3.795 4.79-9.594 2.8-16.33-1.282-4.341-3.758-8.816-7.11-12.946zm-29.275-4.312c.571-.571 1.574-.86 2.85-.86 1.04 0 2.261.192 3.574.581 2.785.823 5.793 2.461 8.654 4.647l-10.711 10.711c-2.185-2.861-3.824-5.869-4.647-8.654-.866-2.926-.758-5.388.28-6.425zm-18.269 18.267c.566-.565 1.546-.864 2.824-.864 2.967 0 7.54 1.617 12.262 5.224l-10.721 10.722c-5.157-6.754-6.243-13.203-4.365-15.082zm26.518 26.517c-1.879 1.88-8.328.794-15.082-4.364l10.717-10.717c5.157 6.752 6.243 13.202 4.365 15.081zm18.265-18.267c-1.037 1.038-3.499 1.144-6.424.28-2.785-.823-5.793-2.461-8.654-4.647l10.711-10.712c2.186 2.861 3.824 5.869 4.647 8.654.866 2.925.758 5.387-.28 6.425z"/><path d="m333.727 360.661h10v26.037h-10z"/></g></g></svg>