<svg fill="none" height="512" viewBox="0 0 36 36" width="512" xmlns="http://www.w3.org/2000/svg"><path d="m3.73516 21.1962c-1.84262 4.2994.00002 8.4453 3.07103 9.9808 8.86051 4.4303 16.89071 0 22.05981-4.9192 4.7843-4.5531 5.3743-17.65845-.7678-21.49724-6.142-3.838793-16.8906-1.2257-16.8906 6.14204 0 6.4548-5.16916 4.9192-7.47244 10.2936z" fill="#efefef"/><path clip-rule="evenodd" d="m4.5 10c.27614 0 .5-.22386.5-.5s-.22386-.5-.5-.5-.5.22386-.5.5.22386.5.5.5zm0 1c.82843 0 1.5-.6716 1.5-1.5 0-.82843-.67157-1.5-1.5-1.5s-1.5.67157-1.5 1.5c0 .8284.67157 1.5 1.5 1.5z" fill="#a4afc1" fill-rule="evenodd"/><path d="m8.96852 16.4947c-.73809 0-1.30975-.6569-1.10895-1.3672.23554-.8332.57101-1.6244.99263-2.3599.33873-.591 1.13994-.6468 1.6216-.1651.5878.5878 1.5409.5878 2.1287 0 .5878-.5879.5878-1.5409 0-2.1288-.4816-.48159-.4258-1.28279.1651-1.62152.7355-.42161 1.5267-.75707 2.3599-.99262.7103-.20079 1.3672.37086 1.3672 1.10895 0 .83133.674 1.50529 1.5053 1.50529s1.5052-.67396 1.5052-1.50529c0-.73809.657-1.30974 1.3672-1.10895.8332.23555 1.6244.57101 2.36.99262.5909.33873.6467 1.13993.1651 1.62152-.5879.5879-.5879 1.5409 0 2.1288.5878.5878 1.5409.5878 2.1287 0 .4816-.4817 1.2828-.4259 1.6216.1651.4216.7355.757 1.5267.9926 2.3599.2008.7103-.3709 1.3672-1.109 1.3672-.8313 0-1.5052.674-1.5052 1.5053s.6739 1.5052 1.5052 1.5052c.7381 0 1.3098.657 1.109 1.3672-.2356.8332-.571 1.6245-.9927 2.36-.3387.5909-1.1399.6467-1.6215.1651-.5878-.5878-1.5409-.5878-2.1287 0-.5879.5879-.5879 1.5409 0 2.1288.4816.4816.4258 1.2827-.1651 1.6215-.7356.4216-1.5268.757-2.36.9926-.7102.2008-1.3672-.3709-1.3672-1.109 0-.8313-.6739-1.5052-1.5052-1.5052s-1.5053.6739-1.5053 1.5052c0 .7381-.6569 1.3098-1.3671 1.109-.7708-.2179-1.5057-.5213-2.1939-.8994-.5054-.2777-.5553-.9614-.1353-1.3566.646-.608.6615-1.6297.0342-2.2569-.6141-.6141-1.6096-.6141-2.2237 0-.4732.4732-1.25826.4287-1.60713-.1424-.49234-.806-.87945-1.6832-1.14221-2.6127-.20079-.7102.37087-1.3672 1.10896-1.3672.83132 0 1.50528-.6739 1.50528-1.5052s-.67396-1.5053-1.50528-1.5053z" fill="#2edf84"/><g clip-rule="evenodd" fill-rule="evenodd"><path d="m7.85957 15.1275c-.2008.7103.37086 1.3672 1.10895 1.3672.83132 0 1.50528.674 1.50528 1.5053s-.67396 1.5052-1.50528 1.5052c-.73809 0-1.30975.657-1.10896 1.3672.26276.9295.64987 1.8067 1.14221 2.6127.34861.5706 1.13273.6155 1.60603.1434-.0386-.0434-.0741-.0912-.106-.1434-.4924-.806-.87948-1.6832-1.14224-2.6127-.20079-.7102.37087-1.3672 1.10894-1.3672.8313 0 1.5053-.6739 1.5053-1.5052s-.674-1.5053-1.5053-1.5053c-.73807 0-1.30973-.6569-1.10893-1.3672.23554-.8332.57101-1.6244.99263-2.3599.0352-.0615.0754-.1171.1197-.167-.48179-.4796-1.28139-.4232-1.6197.167-.42162.7355-.75709 1.5267-.99263 2.3599zm4.42853-2.2839c.5753.331 1.3227.2506 1.8144-.2411.5878-.5879.5878-1.5409 0-2.1288-.4816-.48159-.4258-1.28279.1651-1.62152.5638-.32319 1.1604-.59575 1.7834-.81149-.2501-.19496-.5806-.27807-.9235-.18113-.8332.23555-1.6244.57101-2.3599.99262-.5909.33873-.6467 1.13993-.1651 1.62152.5878.5879.5878 1.5409 0 2.1288-.0961.0961-.2019.1764-.3144.2411zm6.4619-2.5697c.2208.1271.4769.1999.75.1999.8313 0 1.5052-.67396 1.5052-1.50529 0-.38174.1758-.71897.4437-.92782-.1897-.06571-.382-.12614-.5765-.18113-.7102-.20079-1.3672.37086-1.3672 1.10895 0 .55824-.3039 1.04549-.7552 1.30539zm6.4618 2.5697c.5753.331 1.3227.2506 1.8144-.2411.0006-.0006.0012-.0012.0018-.0018-.3821-.4299-1.0702-.4298-1.5018.0018-.0961.0961-.2019.1764-.3144.2411zm1.8162 10.5557c-.0006-.0006-.0012-.0012-.0018-.0018-.4917-.4917-1.2391-.5721-1.8144-.2411.1125.0647.2183.145.3144.2411.4316.4316 1.1197.4316 1.5018.0018zm-5.5791 4.56c-.2679-.2089-.4437-.5461-.4437-.9279 0-.8313-.6739-1.5052-1.5052-1.5052-.2731 0-.5292.0727-.75.1999.4513.2598.7552.7471.7552 1.3053 0 .7381.657 1.3098 1.3672 1.109.1946-.055.3868-.1154.5765-.1811zm-5.3978 0c-.5623-.1947-1.1029-.4356-1.6174-.7183-.5054-.2777-.5553-.9614-.1353-1.3566.646-.608.6615-1.6297.0342-2.2569-.5042-.5042-1.2656-.5944-1.8619-.2706.13.0705.252.1607.3619.2706.6273.6272.6118 1.6489-.0342 2.2569-.42.3952-.3701 1.0789.1353 1.3566.6882.3781 1.4231.6815 2.1939.8994.3429.0969.6733.0138.9235-.1811z" fill="#00b872"/><path d="m15.5984 8.639c-.0771-.06398-.1664-.08612-.2668-.05772-.7734.21863-1.5079.53003-2.191.92159-.0685.03923-.1038.09774-.1109.1746-.0076.08339.0214.18417.1031.26593.8808.8807.8808 2.3087 0 3.1894-.8807.8807-2.3086.8807-3.18936 0-.08177-.0818-.18255-.1107-.26594-.1031-.07687.007-.13538.0424-.17461.1109-.39156.683-.70297 1.4176-.9216 2.191-.02841.1004-.00626.1897.05771.2668.06861.0826.18513.1463.32953.1463 1.24557 0 2.25527 1.0097 2.25527 2.2553 0 1.2455-1.0097 2.2552-2.25527 2.2552-.14441 0-.26094.0638-.32954.1464-.06396.077-.08611.1663-.05771.2668.24389.8627.60324 1.6771 1.06053 2.4257.04028.0659.09899.1001.17532.1061.0825.0064.18134-.023.26147-.1031.9069-.9069 2.3774-.9069 3.2843 0 .9265.9265.9036 2.4355-.0505 3.3335-.039.0366-.0492.0785-.0465.1083.0013.0144.0054.0231.0081.0274.0018.0029.0062.0093.0209.0174.639.3511 1.3212.6327 2.0367.835.1005.0284.1898.0062.2668-.0577.0826-.0686.1463-.1851.1463-.3296 0-1.2455 1.0098-2.2552 2.2553-2.2552s2.2552 1.0097 2.2552 2.2552c0 .1444.0638.261.1464.3296.077.0639.1664.0861.2668.0577.7733-.2186 1.5079-.5301 2.191-.9216.0684-.0392.1038-.0977.1108-.1746.0076-.0834-.0213-.1841-.1031-.2659-.8807-.8807-.8807-2.3087 0-3.1894.8808-.8807 2.3087-.8807 3.1894 0 .0818.0818.1826.1107.266.1031.0768-.007.1353-.0424.1746-.1108.3915-.6831.703-1.4177.9216-2.1911.0284-.1005.0062-.1898-.0577-.2668-.0686-.0826-.1852-.1464-.3296-.1464-1.2455 0-2.2552-1.0097-2.2552-2.2552 0-1.2456 1.0097-2.2553 2.2552-2.2553.1444 0 .261-.0637.3296-.1463.0639-.0771.0861-.1664.0577-.2669-.2186-.7733-.5301-1.5079-.9216-2.1909-.0392-.0685-.0978-.1039-.1746-.1109-.0834-.0076-.1842.0213-.266.1031-.8807.8807-2.3086.8807-3.1894 0-.8807-.8807-.8807-2.3087 0-3.1894.0818-.08176.1107-.18254.1031-.26593-.007-.07686-.0424-.13537-.1108-.1746-.6831-.39156-1.4177-.70296-2.191-.92159-.1004-.0284-.1898-.00626-.2668.05772-.0826.0686-.1464.18512-.1464.32952 0 1.24558-1.0097 2.25528-2.2552 2.25528-1.2456 0-2.2553-1.0097-2.2553-2.25528 0-.1444-.0637-.26092-.1463-.32952zm-.6749-1.50115c1.2599-.35618 2.3212.67148 2.3212 1.83067 0 .41711.3382.75524.7553.75524s.7552-.33813.7552-.75524c0-1.15919 1.0614-2.18685 2.3213-1.83067.893.25246 1.7409.61198 2.5289 1.06366 1.0779.61789 1.1043 2.02059.3224 2.80259-.2949.2949-.2949.7731 0 1.068.2949.295.7731.295 1.0681 0 .7819-.7819 2.1846-.7555 2.8025.3225.4517.788.8112 1.6359 1.0637 2.5289.3562 1.2599-.6715 2.3212-1.8307 2.3212-.4171 0-.7552.3382-.7552.7553s.3381.7552.7552.7552c1.1592 0 2.1869 1.0614 1.8307 2.3213-.2525.893-.612 1.7409-1.0637 2.5289-.6179 1.078-2.0206 1.1044-2.8025.3225-.295-.295-.7732-.295-1.0681 0-.2949.2949-.2949.7731 0 1.068.7819.782.7555 2.1847-.3224 2.8025-.788.4517-1.6359.8112-2.5289 1.0637-1.2599.3562-2.3213-.6715-2.3213-1.8307 0-.4171-.3381-.7552-.7552-.7552s-.7553.3381-.7553.7552c0 1.1592-1.0613 2.1869-2.3212 1.8307-.8261-.2335-1.6137-.5587-2.3509-.9638-1.0044-.5518-1.0342-1.858-.2882-2.5601.3378-.318.3459-.8523.0179-1.1804-.3212-.3212-.8419-.3212-1.1631 0-.7694.7694-2.14189.7587-2.77745-.2817-.5274-.8634-.94226-1.8034-1.2239-2.7997-.35618-1.2599.67152-2.3212 1.83068-2.3212.4171 0 .75524-.3381.75524-.7552s-.33814-.7553-.75524-.7553c-1.15919 0-2.18685-1.0613-1.83067-2.3212.25246-.893.61198-1.7409 1.06367-2.5289.6179-1.078 2.02067-1.1044 2.80257-.3225.2949.295.7731.295 1.0681 0 .2949-.2949.2949-.7731 0-1.068-.782-.782-.7555-2.1847.3224-2.80259.788-.45168 1.6359-.8112 2.5289-1.06366z" fill="#000"/><path d="m14.5523 16.4402c.6106-.3221.8445-1.0782.5224-1.6888l1.3267-.6999c.7086 1.3434.194 3.0068-1.1493 3.7154z" fill="#000"/><path d="m20.7451 21.8459c.0036-.6903.5662-1.247 1.2566-1.2434l.0079-1.5c-1.5188-.008-2.7565 1.2167-2.7645 2.7355z" fill="#000"/></g></svg>