<svg id="Capa_1" enable-background="new 0 0 512 512" height="512" viewBox="0 0 512 512" width="512" xmlns="http://www.w3.org/2000/svg" xmlns:xlink="http://www.w3.org/1999/xlink"><linearGradient id="SVGID_1_" gradientUnits="userSpaceOnUse" x1="40.732" x2="462.183" y1="256" y2="256"><stop offset=".0485" stop-color="#d2deff"/><stop offset=".9993" stop-color="#dcfdee"/></linearGradient><linearGradient id="SVGID_2_" gradientUnits="userSpaceOnUse" x1="228.958" x2="228.958" y1="96.5" y2="424.5"><stop offset=".0028" stop-color="#ff7eb8" stop-opacity="0"/><stop offset="1" stop-color="#ff7eb8" stop-opacity=".6"/></linearGradient><g><g><g><path d="m92.603 38.232c-135.327 119.538 38.831 235.409 22.243 366.028-7.375 58.072 16.054 113.588 92.705 107.244 93.413-7.732 59.504-97.209 79.066-156.778 33.66-102.501 240.73-78.56 154.895-236.448-54.778-100.758-255.766-162.321-348.909-80.046z" fill="url(#SVGID_1_)"/></g><g><g><g><g><path d="m413.457 177.17v207.33c0 22.09-17.91 40-40 40h-185.59v-257.33h215.59c5.03 0 9.2 3.72 9.89 8.56.08.47.11.95.11 1.44z" fill="#b7c5ff"/><path d="m413.457 177.17v52.19l-153.38 153.38c-2.73 2.73-5.99 4.87-9.59 6.29l-28.24 11.17c-4.07 1.6-8.1-2.42-6.49-6.49l11.16-28.25c1.42-3.59 3.56-6.86 6.29-9.59l180.14-180.14c.08.47.11.95.11 1.44z" fill="#9fb0fe"/><path d="m368.457 424.5h-239c-22.09 0-40-17.91-40-40v-278c0-5.52 4.48-10 10-10h219c5.52 0 10 4.48 10 10v278c0 22.09 17.91 40 40 40z" fill="#fff"/><path d="m328.457 181.666v-75.166c0-5.52-4.48-10-10-10h-219c-5.52 0-10 4.48-10 10v75.166z" fill="#ffc4df"/><path d="m328.457 260.62v53.74l-68.38 68.38c-2.73 2.73-5.99 4.87-9.59 6.29l-28.24 11.17c-4.07 1.6-8.1-2.42-6.49-6.49l11.16-28.25c1.42-3.59 3.56-6.86 6.29-9.59z" fill="#d2deff"/></g><g><g><path d="m290.254 327.951h-164.416c-2.762 0-5-2.239-5-5s2.238-5 5-5h164.417c2.762 0 5 2.239 5 5-.001 2.762-2.239 5-5.001 5z" fill="#b7c5ff"/></g><g><path d="m222.897 374.723h-97.059c-2.762 0-5-2.239-5-5s2.238-5 5-5h97.059c2.762 0 5 2.239 5 5s-2.238 5-5 5z" fill="#b7c5ff"/></g><g><g><path d="m290.254 267.951h-164.416c-2.762 0-5-2.239-5-5s2.238-5 5-5h164.417c2.762 0 5 2.239 5 5-.001 2.762-2.239 5-5.001 5z" fill="#b7c5ff"/></g><g><path d="m290.254 287.951h-164.416c-2.762 0-5-2.239-5-5s2.238-5 5-5h164.417c2.762 0 5 2.239 5 5-.001 2.762-2.239 5-5.001 5z" fill="#b7c5ff"/></g><g><path d="m290.254 307.951h-164.416c-2.762 0-5-2.239-5-5s2.238-5 5-5h164.417c2.762 0 5 2.239 5 5-.001 2.762-2.239 5-5.001 5z" fill="#b7c5ff"/></g></g><g><g><path d="m168.944 207.951h-43.107c-2.762 0-5-2.239-5-5s2.238-5 5-5h43.107c2.762 0 5 2.239 5 5 0 2.762-2.238 5-5 5z" fill="#b7c5ff"/></g><g><path d="m168.944 164.951h-43.107c-2.762 0-5-2.239-5-5s2.238-5 5-5h43.107c2.762 0 5 2.239 5 5 0 2.762-2.238 5-5 5z" fill="#ff7eb8"/></g><g><path d="m168.944 146.806h-43.107c-2.762 0-5-2.239-5-5s2.238-5 5-5h43.107c2.762 0 5 2.239 5 5s-2.238 5-5 5z" fill="#ff7eb8"/></g><g><path d="m285.173 146.806h-10.107c-2.762 0-5-2.239-5-5s2.238-5 5-5h10.107c2.762 0 5 2.239 5 5s-2.238 5-5 5z" fill="#fff"/></g><g><path d="m290.254 227.951h-164.416c-2.762 0-5-2.239-5-5s2.238-5 5-5h164.417c2.762 0 5 2.239 5 5-.001 2.762-2.239 5-5.001 5z" fill="#b7c5ff"/></g><g><path d="m290.254 247.951h-164.416c-2.762 0-5-2.239-5-5s2.238-5 5-5h164.417c2.762 0 5 2.239 5 5-.001 2.762-2.239 5-5.001 5z" fill="#b7c5ff"/></g></g></g></g><path d="m49.433 308.865c-1.28 0-2.559-.488-3.536-1.465l-11-11c-1.953-1.952-1.953-5.118 0-7.07l11-11c1.953-1.953 5.118-1.953 7.071 0l11 11c1.953 1.952 1.953 5.118 0 7.07l-11 11c-.976.977-2.255 1.465-3.535 1.465zm-3.929-16 3.929 3.929 3.929-3.929-3.929-3.929z" fill="#01eca5"/><path d="m60.433 440.5c-2.761 0-5-2.238-5-5 0-3.309-2.691-6-6-6-2.761 0-5-2.238-5-5s2.239-5 5-5c3.309 0 6-2.691 6-6 0-2.762 2.239-5 5-5s5 2.238 5 5c0 3.309 2.691 6 6 6 2.761 0 5 2.238 5 5s-2.239 5-5 5c-3.309 0-6 2.691-6 6 0 2.762-2.239 5-5 5z" fill="#ff7eb8"/><path d="m383.457 127.364c-2.761 0-5-2.238-5-5 0-3.309-2.691-6-6-6-2.761 0-5-2.238-5-5s2.239-5 5-5c3.309 0 6-2.691 6-6 0-2.762 2.239-5 5-5s5 2.238 5 5c0 3.309 2.691 6 6 6 2.761 0 5 2.238 5 5s-2.239 5-5 5c-3.309 0-6 2.691-6 6 0 2.762-2.238 5-5 5z" fill="#6583fe"/><path d="m347.595 83.903c-2.761 0-5-2.238-5-5 0-3.309-2.692-6-6-6-2.761 0-5-2.238-5-5s2.239-5 5-5c3.309 0 6-2.691 6-6 0-2.762 2.239-5 5-5s5 2.238 5 5c0 3.309 2.691 6 6 6 2.761 0 5 2.238 5 5s-2.239 5-5 5c-3.308 0-6 2.691-6 6 0 2.762-2.239 5-5 5z" fill="#ff7eb8"/></g><g><g><path d="m291.616 173.929c0-9.419-7.663-17.082-17.082-17.082s-17.082 7.663-17.082 17.082c0 4.646 1.869 8.858 4.889 11.941-3.019 3.083-4.889 7.296-4.889 11.941 0 2.839 2.302 5.141 5.141 5.141s5.141-2.302 5.141-5.141c0-3.749 3.05-6.8 6.8-6.8 3.749 0 6.8 3.05 6.8 6.8 0 2.839 2.302 5.141 5.141 5.141s5.141-2.302 5.141-5.141c0-4.645-1.869-8.858-4.889-11.941 3.02-3.083 4.889-7.296 4.889-11.941zm-17.081-6.8c3.749 0 6.8 3.05 6.8 6.8 0 3.749-3.05 6.8-6.8 6.8-3.749 0-6.8-3.051-6.8-6.8 0-3.75 3.05-6.8 6.8-6.8z" fill="#02ffb3"/></g></g><g><path d="m250.492 363.014-28.249 11.161c-4.07 1.608-8.095-2.418-6.487-6.488l11.161-28.249c1.42-3.593 3.562-6.857 6.294-9.589l212.921-212.919c7.42-7.42 19.45-7.42 26.87 0 7.42 7.42 7.42 19.45 0 26.87l-212.921 212.92c-2.732 2.732-5.995 4.875-9.589 6.294z" fill="#ff7eb8"/><path d="m437.848 128.334h9.5v38h-9.5z" fill="#ffc4df" transform="matrix(.707 -.707 .707 .707 25.453 356.117)"/><path d="m399.082 151.975h39.75v38h-39.75z" fill="#ffc4df" transform="matrix(.707 -.707 .707 .707 1.812 346.325)"/><g><path d="m380.843 202.018 30.481-30.481c1.953-1.953 5.119-1.952 7.071 0 1.953 1.952 1.953 5.118 0 7.071l-30.481 30.481c-1.953 1.953-5.119 1.952-7.071 0-1.953-1.952-1.953-5.118 0-7.071z" fill="#ff5ba8"/></g></g><path d="m450.59 283.951c-1.28 0-2.559-.488-3.536-1.465l-11-11c-1.953-1.952-1.953-5.118 0-7.07l11-11c1.953-1.953 5.118-1.953 7.071 0l11 11c1.953 1.952 1.953 5.118 0 7.07l-11 11c-.976.977-2.255 1.465-3.535 1.465zm-3.928-16 3.929 3.929 3.929-3.929-3.929-3.929z" fill="#01eca5"/></g></g><path d="m368.457 424.5h-239c-22.09 0-40-17.91-40-40v-278c0-5.52 4.48-10 10-10h219c5.52 0 10 4.48 10 10v278c0 22.09 17.91 40 40 40z" fill="url(#SVGID_2_)"/></g></svg>